<?xml version="1.0" encoding="utf-8"?>
<!-- Generator: Adobe Illustrator 19.1.0, SVG Export Plug-In . SVG Version: 6.00 Build 0)  -->
<!DOCTYPE svg PUBLIC "-//W3C//DTD SVG 1.1//EN" "http://www.w3.org/Graphics/SVG/1.1/DTD/svg11.dtd">
<svg version="1.1" id="Layer_1" xmlns="http://www.w3.org/2000/svg" xmlns:xlink="http://www.w3.org/1999/xlink" x="0px" y="0px"
	 viewBox="0 0 40 40" enable-background="new 0 0 40 40" xml:space="preserve">
<path id="campus-involvement" fill="#939598" d="M32.8,13.4l5.9,1.8v17h-5.9V13.4z M39,14.8v-2.1l-6.2-1.8l-7.4,2l-3.9-1.4v20.8
	h10.4l0-19.6L39,14.8z M21.5,10.9h-0.9v21.4H6.8v-19l15-4.2l6.7,2.2l-3,0.8L21.5,10.9z M6.3,16.7v15.5H1.5V19.2H1v-0.9L6.3,16.7z
	 M13.2,11h-0.4V5.4h0.4V11z M13.2,6.1c0,0,1.1-1.4,3.2,0.2c2.1,1.6,2.8,0.4,2.8,0.4s-0.8,1.8-2.4,1.8c-1.6,0-1.9-1.5-3.5,0
	C12.6,9.2,13.2,6.1,13.2,6.1z"/>
</svg>
