<?xml version="1.0" encoding="utf-8"?>
<!-- Generator: Adobe Illustrator 19.1.0, SVG Export Plug-In . SVG Version: 6.00 Build 0)  -->
<!DOCTYPE svg PUBLIC "-//W3C//DTD SVG 1.1//EN" "http://www.w3.org/Graphics/SVG/1.1/DTD/svg11.dtd">
<svg version="1.1" id="Layer_1" xmlns="http://www.w3.org/2000/svg" xmlns:xlink="http://www.w3.org/1999/xlink" x="0px" y="0px"
	 viewBox="0 0 40 40" enable-background="new 0 0 40 40" xml:space="preserve">
<path id="academic-basic" fill-rule="evenodd" clip-rule="evenodd" fill="#939598" d="M37,3H22.3c-1.1,0-2,0.9-2,2v25.1v3.4v1.4
	h-0.7v-1.4v-3.4V5c0-1.1-0.9-2-2-2H3C1.9,3,1,3.9,1,5v28.5c0,1.1,0.9,2,2,2h14.7c1,0,1.9,0.8,2,1.8v0.9h0.7v-0.7c0-1.1,0.9-2,2-2H37
	c1.1,0,2-0.9,2-2V5C39,3.9,38.1,3,37,3z"/>
</svg>
