<?xml version="1.0" encoding="utf-8"?>
<!-- Generator: Adobe Illustrator 19.1.0, SVG Export Plug-In . SVG Version: 6.00 Build 0)  -->
<!DOCTYPE svg PUBLIC "-//W3C//DTD SVG 1.1//EN" "http://www.w3.org/Graphics/SVG/1.1/DTD/svg11.dtd">
<svg version="1.1" id="Layer_1" xmlns="http://www.w3.org/2000/svg" xmlns:xlink="http://www.w3.org/1999/xlink" x="0px" y="0px"
	 viewBox="0 0 40 40" enable-background="new 0 0 40 40" xml:space="preserve">
<path id="course-difficulties" fill="#939598" d="M20,1C9.5,1,1,9.5,1,20s8.5,19,19,19s19-8.5,19-19S30.5,1,20,1z M35.2,17.7
	c0.1,0.7,0.2,1.4,0.2,2.1c0,0.3-0.2,0.5-0.5,0.5c0,0,0,0,0,0c-0.3,0-0.5-0.2-0.5-0.5c0-0.7-0.1-1.3-0.2-1.9c0-0.3,0.1-0.5,0.4-0.6
	C34.9,17.2,35.2,17.4,35.2,17.7z M33.4,13.5c0.3-0.1,0.5,0,0.7,0.3c0.3,0.6,0.5,1.3,0.7,2c0.1,0.3-0.1,0.5-0.3,0.6c0,0-0.1,0-0.1,0
	c-0.2,0-0.4-0.1-0.5-0.4c-0.2-0.6-0.4-1.2-0.7-1.8C33,13.9,33.1,13.6,33.4,13.5z M31.1,10.1c0.2-0.2,0.5-0.1,0.7,0.1
	c0.4,0.5,0.9,1.1,1.2,1.7c0.1,0.2,0.1,0.5-0.2,0.7c-0.1,0.1-0.2,0.1-0.3,0.1c-0.2,0-0.3-0.1-0.4-0.2c-0.3-0.5-0.7-1.1-1.1-1.6
	C30.9,10.6,30.9,10.3,31.1,10.1z M28.1,7.5c0.2-0.2,0.5-0.3,0.7-0.1c0.6,0.4,1.1,0.8,1.6,1.3c0.2,0.2,0.2,0.5,0,0.7
	c-0.1,0.1-0.2,0.2-0.4,0.2c-0.1,0-0.2,0-0.3-0.1c-0.5-0.4-1-0.8-1.5-1.2C28,8,27.9,7.7,28.1,7.5z M24.4,5.8c0.1-0.3,0.4-0.4,0.6-0.3
	C25.7,5.7,26.4,6,27,6.3c0.2,0.1,0.3,0.4,0.2,0.7c-0.1,0.2-0.3,0.3-0.4,0.3c-0.1,0-0.2,0-0.2-0.1c-0.6-0.3-1.2-0.6-1.8-0.8
	C24.5,6.3,24.4,6.1,24.4,5.8z M21,4.7c0.7,0,1.4,0.1,2.1,0.3c0.3,0.1,0.4,0.3,0.4,0.6c0,0.2-0.3,0.4-0.5,0.4c0,0-0.1,0-0.1,0
	c-0.6-0.1-1.3-0.2-1.9-0.3c-0.3,0-0.5-0.3-0.5-0.5S20.7,4.6,21,4.7z M16.9,4.9c0.7-0.1,1.4-0.2,2.1-0.3c0.3,0,0.5,0.2,0.5,0.5
	c0,0.3-0.2,0.5-0.5,0.5c-0.6,0-1.3,0.1-1.9,0.3c0,0-0.1,0-0.1,0c-0.2,0-0.4-0.2-0.5-0.4C16.4,5.3,16.6,5,16.9,4.9z M5.2,15.7
	c0.2-0.7,0.4-1.3,0.7-2c0.1-0.3,0.4-0.4,0.7-0.3c0.3,0.1,0.4,0.4,0.3,0.7c-0.3,0.6-0.5,1.2-0.7,1.8c-0.1,0.2-0.3,0.4-0.5,0.4
	c0,0-0.1,0-0.1,0C5.3,16.3,5.2,16,5.2,15.7z M4.8,17.8c0-0.3,0.3-0.5,0.6-0.4c0.3,0,0.5,0.3,0.4,0.6c-0.1,0.6-0.1,1.3-0.2,1.9
	c0,0.3-0.2,0.5-0.5,0.5c0,0,0,0,0,0c-0.3,0-0.5-0.2-0.5-0.5C4.6,19.1,4.7,18.4,4.8,17.8z M5.6,24.3c-0.2,0-0.4-0.1-0.5-0.4
	c-0.2-0.7-0.3-1.4-0.4-2c0-0.3,0.2-0.5,0.4-0.6c0.3,0,0.5,0.2,0.6,0.4c0.1,0.6,0.2,1.3,0.4,1.9C6.2,24,6,24.2,5.8,24.3
	C5.7,24.3,5.7,24.3,5.6,24.3z M7.4,28C7.3,28,7.3,28,7.2,28c-0.2,0-0.3-0.1-0.4-0.2c-0.4-0.6-0.7-1.2-0.9-1.9
	c-0.1-0.3,0-0.5,0.3-0.7c0.3-0.1,0.5,0,0.7,0.3c0.2,0.6,0.5,1.2,0.9,1.7C7.7,27.5,7.7,27.8,7.4,28z M7.3,12.7c-0.1,0-0.2,0-0.3-0.1
	c-0.2-0.1-0.3-0.5-0.2-0.7c0.4-0.6,0.8-1.2,1.2-1.7C8.3,10,8.6,10,8.8,10.2c0.2,0.2,0.2,0.5,0.1,0.7c-0.4,0.5-0.8,1-1.1,1.6
	C7.7,12.6,7.5,12.7,7.3,12.7z M10,31c-0.1,0.1-0.2,0.2-0.4,0.2c-0.1,0-0.3,0-0.3-0.1c-0.5-0.5-1-1-1.4-1.5C7.7,29.3,7.8,29,8,28.8
	c0.2-0.2,0.5-0.1,0.7,0.1c0.4,0.5,0.8,1,1.3,1.4C10.2,30.5,10.2,30.8,10,31z M9.9,9.6c-0.1,0-0.3-0.1-0.4-0.2
	c-0.2-0.2-0.2-0.5,0-0.7c0.5-0.5,1.1-0.9,1.6-1.3c0.2-0.2,0.5-0.1,0.7,0.1C12,7.8,12,8.1,11.8,8.2c-0.5,0.4-1,0.8-1.5,1.2
	C10.1,9.5,10,9.6,9.9,9.6z M12.4,32.8C12.3,33,12.2,33,12,33c-0.1,0-0.2,0-0.3-0.1c-0.3-0.2-0.6-0.4-0.9-0.6
	c-0.2-0.2-0.3-0.5-0.1-0.7c0.2-0.2,0.5-0.3,0.7-0.1c0.3,0.2,0.5,0.4,0.8,0.5C12.5,32.3,12.6,32.6,12.4,32.8z M13.2,7.3
	c-0.2,0-0.4-0.1-0.4-0.3c-0.1-0.2,0-0.5,0.2-0.7c0.6-0.3,1.3-0.6,1.9-0.8c0.3-0.1,0.5,0,0.6,0.3c0.1,0.3,0,0.5-0.3,0.6
	c-0.6,0.2-1.2,0.5-1.8,0.8C13.3,7.3,13.3,7.3,13.2,7.3z M20,25.5c-0.6,0-1.2-0.2-1.7-0.5l-1.6,1.5c-0.5,0.5-1.4,0.4-1.8-0.1
	S14.4,25,15,24.6c0,0,0.1-0.1,0.1-0.1l1.8-1.4c-0.1-0.3-0.2-0.6-0.2-0.9c0-1.8,1.5-3.3,3.3-3.3c0.7,0,1.3,0.2,1.8,0.5l7.8-5.9
	c0.2-0.2,0.5-0.1,0.7,0.1c0.2,0.2,0.1,0.5-0.1,0.7L23,20.8c0.2,0.4,0.3,0.9,0.3,1.4C23.3,24,21.8,25.5,20,25.5z M29.1,32.4
	c-0.3,0.2-0.6,0.4-0.9,0.6C28.2,33,28.1,33,28,33c-0.2,0-0.3-0.1-0.4-0.2c-0.1-0.2-0.1-0.5,0.2-0.7c0.3-0.2,0.5-0.4,0.8-0.5
	c0.2-0.2,0.5-0.1,0.7,0.1C29.4,31.9,29.3,32.2,29.1,32.4z M32.1,29.5c-0.4,0.5-0.9,1.1-1.4,1.5c-0.1,0.1-0.2,0.1-0.3,0.1
	c-0.1,0-0.3,0-0.4-0.2c-0.2-0.2-0.2-0.5,0-0.7c0.5-0.5,0.9-0.9,1.3-1.4c0.2-0.2,0.5-0.3,0.7-0.1C32.3,28.9,32.3,29.2,32.1,29.5z
	 M34.2,25.9c-0.3,0.6-0.6,1.3-0.9,1.9C33.2,27.9,33,28,32.9,28c-0.1,0-0.2,0-0.3-0.1c-0.2-0.1-0.3-0.4-0.2-0.7
	c0.3-0.6,0.6-1.1,0.9-1.7c0.1-0.3,0.4-0.4,0.7-0.3C34.2,25.3,34.3,25.6,34.2,25.9z M34.9,23.9c-0.1,0.2-0.3,0.4-0.5,0.4
	c0,0-0.1,0-0.1,0c-0.3-0.1-0.4-0.3-0.4-0.6c0.2-0.6,0.3-1.3,0.4-1.9c0-0.3,0.3-0.5,0.6-0.4c0.3,0,0.5,0.3,0.4,0.6
	C35.2,22.5,35,23.2,34.9,23.9z"/>
</svg>
