<?xml version="1.0" encoding="utf-8"?>
<!-- Generator: Adobe Illustrator 19.1.0, SVG Export Plug-In . SVG Version: 6.00 Build 0)  -->
<!DOCTYPE svg PUBLIC "-//W3C//DTD SVG 1.1//EN" "http://www.w3.org/Graphics/SVG/1.1/DTD/svg11.dtd">
<svg version="1.1" id="Layer_1" xmlns="http://www.w3.org/2000/svg" xmlns:xlink="http://www.w3.org/1999/xlink" x="0px" y="0px"
	 viewBox="0 0 40 40" enable-background="new 0 0 40 40" xml:space="preserve">
<path id="belonging" fill="#939598" d="M20,37.9c-0.4,0-0.9,0-1.3,0c-0.4-0.4-0.5-0.7-0.1-1.1c0.1-0.1,0.2-0.2,0.3-0.3
	c0.1-0.2,0.4-0.4,0.2-0.6c-0.2-0.2-0.4,0-0.6,0.1c-0.6,0.4-1.3,0.5-2,0.2c-0.3-0.1-0.5-0.3-0.5-0.6c0-0.3,0.2-0.5,0.5-0.6
	c0.4-0.1,0.8-0.2,1.1-0.4c0.3-0.2,0.5-0.4,0.7-0.7c0.3-0.3,0.5-0.7,0.5-1.1c0-0.5-0.1-1-0.2-1.5c0-0.2-0.1-0.2-0.3-0.1
	c-0.6,0.5-1.4,0.8-2,1.2c-0.8,0.5-1.3,0.4-2-0.2c-0.3-0.3-0.5-0.5-0.8-0.8c0,0-0.1-0.1-0.2-0.1c-0.1,0-0.1,0.1-0.1,0.2
	c0,0.3-0.2,0.5-0.3,0.7c-0.2,0.3-0.4,0.4-0.5,0.7c-0.1,0.3-0.2,0.5-0.4,0.7c-0.3,0.3-0.5,0.7-0.6,1.2c0,0.2-0.1,0.4-0.1,0.6
	c0,0.3,0.3,0.2,0.5,0.3c0.1,0,0.2,0.1,0.1,0.2c0,0.1-0.1,0.1-0.2,0.1c-0.7,0.2-1.1-0.3-1-0.8c0.1-0.7,0.4-1.2,1-1.6
	c0.3-0.2,0.3-0.4,0.1-0.7c-0.1-0.1-0.2-0.3-0.1-0.5c0-0.2,0-0.4-0.1-0.6c-0.1-0.3-0.1-0.7,0-1c0.1-0.3,0.1-0.6,0-0.9
	c0-0.3-0.1-0.4-0.4-0.4c-0.2,0-0.4,0-0.7,0c-0.2,0-0.4-0.1-0.4-0.3c0-0.2,0.1-0.3,0.3-0.4c0.2-0.1,0.4-0.2,0.5-0.5
	c0.1-0.5,0.1-0.9,0-1.4c-0.1-0.3-0.1-0.5,0.2-0.7c0.2-0.1,0.2-0.3,0.3-0.5c0.1-0.5,0-1,0-1.5c0-0.4-0.1-0.8-0.3-1.1
	c-0.2-0.3-0.2-0.6-0.2-0.9c0-0.6-0.1-1.3-0.2-1.9c-0.1-0.3-0.1-0.6-0.3-1c-0.3,0.7-0.5,1.3-0.7,2c-0.1,0.3-0.2,0.6-0.2,0.9
	c0.1,1.2,0.1,2.5,0.2,3.7c0,0.8,0,1.6,0,2.4c0.1,0.8-0.2,1-1,1c-0.1,0-0.1,0-0.2,0c-0.4-0.1-0.9-0.1-1.3-0.1c-0.3,0-0.5-0.1-0.8-0.3
	c-0.2-0.2-0.3-0.4-0.2-0.7c0.1-0.2,0.3-0.2,0.5-0.2c0.1,0,0.1,0,0.2,0c0.2,0,0.4-0.1,0.5-0.3c0.3-0.7,0.3-1.4,0.2-2.2
	c0-1.1-0.4-2.2-0.1-3.4c0-0.1,0-0.1,0-0.2c0-0.2,0-0.4,0-0.6c0.1-1,0.2-2,0.4-3c0-0.2,0-0.3-0.2-0.3c-0.3,0-0.6,0-0.9,0.1
	c-0.2,0-0.3,0.1-0.3,0.3c-0.1,0.6-0.1,1.2-0.1,1.8c0.1,1.2,0.2,2.4,0.4,3.6c0.1,0.7,0.1,1.5,0.5,2.2c0.2,0.4,0,0.6-0.4,0.7
	C6.7,27,6.1,27,5.6,27.1c-0.2,0-0.4,0-0.6,0c-0.2,0-0.3-0.1-0.3-0.3c0-0.3-0.1-0.3-0.3-0.3c-0.1,0-0.2,0-0.4,0c-0.1,0-0.3,0-0.3-0.2
	c0-0.2,0.1-0.3,0.2-0.3c0.2-0.1,0.3-0.1,0.5-0.2c0.3-0.1,0.4-0.3,0.4-0.6c-0.2-2-0.7-4-0.9-6c-0.2-1.5-0.4-2.9-0.2-4.4
	c0.1-0.6,0.2-1.2-0.2-1.8c-0.3-0.5-0.5-1-0.8-1.5c-0.2-0.4-0.4-0.8-0.7-1.2c0-0.1,0-0.2,0-0.4c0.4-0.2,0.8-0.4,1.2-0.5
	c0.2-0.1,0.3,0,0.5,0.1c0,0.1,0.1,0.1,0.2,0.1c0.1-0.1,0-0.2,0-0.3C3.9,9,3.9,8.6,4,8.2C4.1,7.6,4.4,7,5.2,7
	C4.8,6.6,4.4,6.3,4.4,5.7c0,0,0-0.1,0-0.1C4.2,5.4,4.2,5.1,4.1,4.8C4,4.4,4.1,4.1,4.4,3.9c0.1-0.1,0.3-0.2,0.4-0.3
	c0.5-0.5,1.6-0.5,2.1,0.3c0.4,0.8,0.7,1.5,0.5,2.4c0,0.2,0,0.4,0.3,0.5c0.2,0,0.2,0.1,0.1,0.2c-0.1,0.2,0,0.2,0.1,0.3
	c0.5,0.4,0.7,1,0.8,1.6c0.1,0.6,0.1,1.2,0.2,1.8c0,0.1,0,0.2,0.2,0.2c0.1,0,0.1-0.1,0.1-0.2c-0.1-0.8,0-1.6,0.2-2.4
	c0.1-0.3,0.3-0.6,0.2-1C9.5,7.2,9.7,7,9.3,6.9c0,0-0.1-0.1-0.1-0.2c-0.1-0.3,0-0.6-0.3-0.8c0,0,0-0.1,0-0.2c0.2-0.5,0-0.9-0.1-1.3
	C8.6,4.2,8.7,4,8.9,3.9c0.4-0.3,0.8-0.6,1.3-0.6c0.2,0,0.4-0.1,0.5-0.1c0.1,0,0.3,0,0.4,0c0.1,0,0.1,0.1,0.2,0.1
	c0.8,0.5,1,0.9,0.8,1.8c0,0.2-0.1,0.4-0.2,0.7c-0.2,0.5,0.1,0.9,0.2,1.3c0,0.1,0.1,0.1,0.2,0.2c0.5,0.2,0.9,0.6,1.3,1
	c0.3,0.3,0.5,0.6,0.6,1.1c0.1,0.5,0,1,0.2,1.5c0.2,0.8,0.3,1.6,0.2,2.4c-0.1,0.6,0.1,1.3,0.9,1.6c0.1-0.5,0.2-1-0.1-1.5
	c-0.2-0.3-0.3-0.7-0.1-1c0.2-0.5,0.2-1,0.1-1.6c0-0.1,0-0.2,0-0.4c0-0.5,0.3-0.8,0.7-1c0.2-0.1,0.4-0.3,0.7-0.4
	c0.1-0.1,0.2-0.2,0.2-0.3c-0.2-0.6-0.1-1.2-0.2-1.9c-0.1-0.7-0.1-1.5,0.2-2.2C17.3,3.7,18.7,3,19.6,4c0.2,0.2,0.4,0.5,0.5,0.9
	c0.2,0.5,0.2,1,0.3,1.5c0.1,0.7,0.1,1.4,0.4,2c0.1,0.2,0.2,0.3,0.4,0.4c0.5,0.2,0.8,0.5,1,1c0,0,0,0.1,0.1,0.1
	c0.1-0.1,0.1-0.3,0.2-0.5c0.2-0.7,0.5-1.2,1.1-1.6c0.4-0.3,0.8-0.6,1.2-0.9c0.2-0.2,0.4-0.2,0.6-0.3c0.3-0.1,0.3-0.2,0.1-0.4
	c-0.3-0.3-0.4-0.7-0.5-1.1c-0.1-1,0-1.5,0.8-1.9c0.1,0,0.1-0.1,0.2-0.1c0.4-0.1,0.7-0.1,1.2,0c0.2,0.1,0.4,0.1,0.6,0.2
	c0.2,0.1,0.3,0.2,0.3,0.5c0,0.3,0.1,0.7,0,1c0,0.1,0,0.2,0,0.2c0.2,0.4,0.2,0.7,0,1.1c0,0.1,0,0.2,0,0.2c0,0.2,0,0.4-0.2,0.5
	c-0.1,0-0.1,0.1,0,0.2c0.2,0.1,0.3,0.3,0.5,0.3c0.5,0.1,0.9,0.5,1.1,1c0.2,0.3,0.2,0.7,0.3,1.1c0.1,0.3,0.1,0.6,0.2,0.8
	c0.1-0.2,0.1-0.3,0.2-0.5c0.1-0.5,0.2-1.1,0.3-1.6c0-0.1,0.1-0.3,0.2-0.4c0.1-0.1,0.2-0.1,0.1-0.3c-0.1-0.1,0.1-0.1,0.2-0.1
	c0.3,0,0.6-0.1,0.9-0.2C32,7.1,32.2,7,32.3,6.8c-0.3-0.1-0.6-0.4-0.5-0.7c0-0.2,0-0.3-0.1-0.5c-0.1-0.2-0.2-0.5,0-0.7
	c0.2-0.2,0.2-0.4,0.2-0.6c0-0.5,0.3-0.7,0.6-0.9c0.2-0.1,0.4-0.2,0.6-0.3c0.3,0,0.2-0.1,0.9,0c0,0,0.1,0,0.1,0.1
	c1.1,0.5,1.3,1.8,0.3,2.6c-0.2,0.2-0.3,0.3-0.3,0.6c0.1,0.3,0.2,0.5,0.5,0.5c0.4,0.1,0.8,0.3,1.2,0.5c0.1,0,0.2,0.1,0.2,0.2
	c0,0.1,0,0.2,0.1,0.3c0.2,0.5,0.4,0.9,0.5,1.4c0.1,0.7,0.1,1.4,0.3,2.1c0.1,0.4,0.1,0.9,0,1.3c-0.1,0.7-0.3,1.3-0.5,2
	c-0.1,0.4-0.2,0.9-0.8,1c-0.1,0,0,0.1,0,0.2c0.1,0.1,0.3,0.2,0.5,0.2c0.4,0.2,0.7,0.5,0.8,0.9c0.1,0.3,0.2,0.6,0.4,0.8
	c0.4,0.4,0.4,0.8,0.3,1.4c0,0.4,0,0.7,0.2,1.1c0,0.1,0,0.2,0,0.4c-0.2,0.3-0.2,0.6-0.1,1c0.1,0.5,0,0.7-0.5,0.8
	c-0.5,0.2-1,0.2-1.5,0.2c-0.2,0-0.3,0.1-0.4,0.3c-0.1,0.7-0.4,1.5-0.3,2.2c0,0,0,0.1,0,0.2c-0.1,0.6-0.4,1.2-0.2,1.9
	c0,0,0,0.1,0,0.1c0,0.3-0.4,0.6-0.7,0.6c-0.3,0-0.4-0.2-0.4-0.6c0-0.5-0.1-1-0.1-1.5c0-0.3,0.1-0.6,0.1-0.8c-0.1-0.7,0-1.4,0-2
	c0-0.6-0.1-1.1-0.7-1.5c0,0.2,0,0.4,0,0.6c0.1,0.7,0.1,1.4-0.1,2c-0.1,0.2,0,0.4,0,0.6c0.1,0.4,0.2,0.7,0.1,1.1c0,0,0,0.1,0,0.1
	c0.2,0.5,0.1,1,0,1.5c-0.1,0.4-0.4,0.7-0.8,0.8c-0.2,0-0.4,0-0.6,0c-0.2,0-0.2,0-0.3,0.2c-0.1,0.3-0.1,0.6,0,1
	c0.1,0.5,0,0.7-0.5,0.9c-1.1,0.4-2.2,0.5-3.3,0.1c0,0-0.1,0-0.1,0c0,0.1,0.1,0.1,0.2,0.2c0.1,0.1,0.2,0.1,0.1,0.2
	c-0.1,0.1-0.2,0.1-0.3,0c-0.2-0.1-0.5-0.3-0.4-0.6c0-0.1,0-0.1-0.1-0.1c-0.4-0.1-0.6-0.4-0.8-0.7c-0.1-0.1-0.1-0.2-0.2-0.1
	c-0.1,0.1,0,0.1,0,0.2c0.1,0.4,0,0.6-0.4,0.7c-0.3,0.1-0.7,0.1-1,0c-0.3-0.1-0.5-0.3-0.5-0.6c0-0.5,0-0.9-0.2-1.4
	c-0.1-0.3-0.2-0.6-0.2-1c-0.2-1.4-0.3-2.9-0.2-4.3c0-0.4-0.1-0.8-0.2-1.3c-0.1,0.2-0.3,0.3-0.4,0.3c-0.4,0-0.7,0.3-0.9,0.6
	c-0.1,0.1-0.1,0.2-0.3,0.2c-0.1,0-0.1-0.2-0.2-0.3c-0.2-0.7-0.4-1.4-0.7-2.1c-0.1-0.2-0.1-0.3-0.2-0.5c-0.1-0.1-0.2-0.2-0.4-0.1
	c-0.2,0.1-0.1,0.2,0,0.3c0.2,0.6,0.5,1.2,0.7,1.8c0.1,0.2,0.1,0.4,0.3,0.6c0.2,0.2,0.2,0.5,0.2,0.8c-0.1,0.6-0.2,1.1-0.2,1.7
	c-0.1,0.7-0.2,1.3,0,2c0.2,0.7,0.4,1.4,0.4,2.2c0.1,0.7,0,1.4-0.1,2.1c-0.1,0.9-0.3,1.9-0.5,2.8c0,0.2-0.1,0.4,0,0.6
	c0.2,0.7,0.5,1.3,0.5,2c0,0.4-0.1,0.7-0.5,0.9c-0.1,0-0.2,0.1-0.3,0.2C20.7,37.6,20.4,37.8,20,37.9z M31.6,27.6
	c0.6-0.7,0.4-1.4,0.3-2.1c-0.1-0.3-0.2-0.6-0.1-1c0-0.2,0-0.3,0-0.5c-0.1-0.6-0.2-1.1-0.2-1.7c0-0.7,0-1.4-0.2-2.1
	c-0.1-0.2,0-0.4,0-0.6c0-0.2,0-0.4-0.1-0.6c-0.1-0.3-0.1-0.5-0.2-0.8c-0.1-0.6-0.1-1.2-0.3-1.8c-0.1-0.2-0.2-0.5-0.4-0.5
	c-0.4-0.1-0.9,0.2-0.8,0.7c0,0.3,0.1,0.6,0.1,0.8c0,1.3,0,2.6-0.1,4c0,0.5-0.1,0.9-0.2,1.4c-0.1,0.2,0,0.3,0.2,0.4
	c0.5,0.1,0.8,0.5,0.9,0.9c0.1,0.3,0.3,0.6,0.5,0.9c0.4,0.4,0.5,0.9,0.4,1.4C31.3,26.8,31.4,27.2,31.6,27.6z M15.3,18.1
	c-0.5,0.3-1,0.3-1.5,0.2c-0.2,0-0.3,0.1-0.4,0.3c-0.1,0.6-0.2,1.1-0.4,1.7c-0.1,0.2-0.1,0.5,0,0.7c0.2,0.7,0.2,1.4,0.3,2.1
	c0,0.3,0.1,0.6,0.1,0.9c0,0,0.1,0,0.1,0c0.4-1,1-1.8,1.2-2.9c0-0.1,0-0.1,0.1-0.2C15.2,20.1,15.1,19.1,15.3,18.1z M17.4,27.3
	c0,0,0-0.1,0-0.1c-0.2-0.6-0.3-1.2-0.5-1.7c-0.4-1.1-0.8-2.1-1.1-3.2c0-0.1,0-0.2-0.1-0.2c-0.1,0-0.2,0.1-0.2,0.2
	c-0.3,0.7-0.5,1.4-0.6,2.2c0,0.2,0,0.3,0.2,0.4c0.2,0.1,0.5,0.2,0.6,0.4c0.5,0.6,1,1.2,1.2,2c0,0.2,0.2,0.3,0.3,0.4
	c0,0,0.1,0.1,0.1,0.1c0.1,0,0.1-0.1,0.1-0.1C17.3,27.4,17.4,27.4,17.4,27.3z M26.6,20.5c-0.1,0.3-0.3,0.7-0.3,1
	c-0.2,0.9-0.6,1.9-0.2,2.9c0,0,0,0.1,0,0.2c0,0.7,0.2,1.4,0.1,2.1c0,0.2,0.1,0.5,0.3,0.6c0.1,0.1,0.2-0.2,0.3-0.4
	c0.1-0.1,0.1-0.2,0.1-0.3c0-0.1,0-0.2,0-0.2c-0.3-0.2-0.1-0.4,0-0.6c0.1-0.1,0.1-0.3,0.1-0.4c-0.1-1.2,0.2-2.3-0.1-3.5
	c0,0,0-0.1,0-0.1C26.7,21.4,26.8,20.9,26.6,20.5z M21.1,13.1C21,13.2,21,13.2,21.1,13.1c-0.2,0.3-0.3,0.6-0.4,0.9
	c-0.1,0.3-0.1,0.7,0,1c0.3,0.8,0.7,1.5,0.9,2.3c0,0.1,0.1,0.1,0.2,0.1c0.2-0.1,0.3-0.2,0.2-0.5c-0.3-0.9-0.5-1.8-0.7-2.7
	C21.2,13.9,21.1,13.5,21.1,13.1z M35.3,13.8c0.6-1.1,0.4-2.2,0-3.3C34.9,11.6,35.3,12.6,35.3,13.8z M33.2,17.7
	c-0.2,0.9,0,1.9,0.1,2.8C33.7,19.6,33.4,18.7,33.2,17.7z M23.4,17.8c0.3-1.4,0.1-2.1-0.4-2.4C23.1,16.2,23.5,17,23.4,17.8z"/>
</svg>
