<?xml version="1.0" encoding="utf-8"?>
<!-- Generator: Adobe Illustrator 19.1.0, SVG Export Plug-In . SVG Version: 6.00 Build 0)  -->
<!DOCTYPE svg PUBLIC "-//W3C//DTD SVG 1.1//EN" "http://www.w3.org/Graphics/SVG/1.1/DTD/svg11.dtd">
<svg version="1.1" id="Layer_1" xmlns="http://www.w3.org/2000/svg" xmlns:xlink="http://www.w3.org/1999/xlink" x="0px" y="0px"
	 viewBox="0 0 40 40" enable-background="new 0 0 40 40" xml:space="preserve">
<path id="attendance" fill="#939598" d="M10.7,10.9L10.7,10.9c-0.9,0-1.6-0.7-1.6-1.6V3.6C9.1,2.7,9.8,2,10.7,2l0,0
	c0.9,0,1.6,0.7,1.6,1.6v5.7C12.3,10.2,11.6,10.9,10.7,10.9z M30.9,9.3V3.6c0-0.9-0.7-1.6-1.6-1.6l0,0c-0.9,0-1.6,0.7-1.6,1.6v5.7
	c0,0.9,0.7,1.6,1.6,1.6l0,0C30.2,10.9,30.9,10.2,30.9,9.3z M36.6,37c1.3,0,2.4-1.1,2.4-2.4V7.7c0-1.3-1.1-2.4-2.4-2.4h-4v4
	c0,1.8-1.5,3.2-3.2,3.2s-3.2-1.5-3.2-3.2v-4H13.9v4c0,1.8-1.5,3.2-3.2,3.2s-3.2-1.5-3.2-3.2v-4h-4C2.1,5.2,1,6.3,1,7.7v26.9
	C1,35.9,2.1,37,3.4,37H36.6z"/>
</svg>
