<?xml version="1.0" encoding="utf-8"?>
<!-- Generator: Adobe Illustrator 19.1.0, SVG Export Plug-In . SVG Version: 6.00 Build 0)  -->
<!DOCTYPE svg PUBLIC "-//W3C//DTD SVG 1.1//EN" "http://www.w3.org/Graphics/SVG/1.1/DTD/svg11.dtd">
<svg version="1.1" id="Layer_1" xmlns="http://www.w3.org/2000/svg" xmlns:xlink="http://www.w3.org/1999/xlink" x="0px" y="0px"
	 viewBox="0 0 40 40" enable-background="new 0 0 40 40" xml:space="preserve">
<path id="finacial" fill="#939598" d="M38.9,19c-0.1-0.7-0.6-1.4-1.2-1.7c-0.4-0.2-1-0.4-1.7-0.6l-0.1,0l-0.1-0.1
	c-1.6-3.5-3.6-6.2-6.1-8.2L29.4,8l0.3-0.3c0.7-0.7,1.4-1.9,2.1-3.1l0.3-0.5c0.4-0.7,0.4-1.6-0.1-2.3c-0.5-0.7-1.3-1-2.1-0.8
	c-1.3,0.3-2.8,0.7-4.2,1.1c-1.6,0.5-3,1.4-3.8,2.5l-0.1,0.2l-0.2,0c-1-0.1-2-0.2-3.1-0.2C8.9,4.6,1,11.6,1,20.3
	C1,25.4,3.6,30,8.1,33l0.2,0.1l0,0.2c-0.1,1.8-0.1,2.9-0.1,3.6c0,1.1,0.9,2,1.9,2c0.4,0,0.8,0,1.3,0h0c0.9,0,1.5-0.1,1.9-0.1
	c0.6-0.1,1.1-0.4,1.4-0.9l0-0.1c0.3-0.5,0.9-1.3,1.5-1.9l0.1-0.1l0.2,0c1.4,0.1,2.8,0.1,4.4,0l0.2,0l0.1,0.1
	c0.7,0.9,1.5,1.7,1.9,2.2c0.3,0.4,0.8,0.6,1.2,0.7c0.4,0.1,1.1,0.1,2,0.1c0.5,0,0.9,0,1.3,0c1.1-0.1,1.9-1,1.9-2.1
	c0-1,0-2.3-0.1-3.8l0-0.2l0.2-0.1c2.5-1.7,4.4-4.1,5.7-7l0.1-0.2l0.2,0c0.6-0.1,1.3-0.3,1.9-0.5c0.8-0.3,1.3-1,1.4-1.8
	C39,22,39,20.1,38.9,19z M12.7,10.4c-2.6,0.8-5.1,4.1-5.4,3.4c-0.2-0.7,2.4-4.2,5-5c2.6-0.8,5.5,0.4,5.7,1.1
	C18.3,10.5,15.4,9.6,12.7,10.4z M20.7,28.4h-2.2v-2.2h2.2V28.4z M23.7,19c-0.1,0.3-0.2,0.6-0.4,0.9c-0.2,0.3-0.3,0.5-0.5,0.7
	c-0.2,0.2-0.4,0.4-0.6,0.7c-0.2,0.2-0.4,0.4-0.6,0.6c-0.2,0.2-0.4,0.4-0.5,0.7c-0.2,0.2-0.3,0.5-0.4,0.8c-0.1,0.3-0.1,0.6-0.1,0.9
	V25h-1.7v-0.9c0-0.6,0.1-1,0.3-1.4c0.2-0.4,0.4-0.7,0.6-1c0.3-0.3,0.5-0.6,0.8-0.8c0.3-0.3,0.5-0.5,0.8-0.8c0.2-0.3,0.4-0.6,0.6-0.9
	c0.1-0.3,0.2-0.8,0.2-1.2c-0.1-0.7-0.3-1.3-0.7-1.7c-0.4-0.4-1-0.6-1.7-0.6c-0.5,0-0.9,0.1-1.2,0.3c-0.3,0.2-0.6,0.4-0.9,0.7
	c-0.2,0.3-0.4,0.6-0.5,1c-0.1,0.4-0.2,0.8-0.2,1.3h-1.7c0-0.7,0.1-1.3,0.3-1.9c0.2-0.6,0.5-1.1,0.9-1.5c0.4-0.4,0.8-0.8,1.4-1
	c0.5-0.2,1.2-0.4,1.8-0.4c0.6,0,1.2,0.1,1.7,0.3c0.5,0.2,0.9,0.4,1.3,0.8c0.4,0.3,0.6,0.7,0.9,1.2c0.2,0.5,0.3,1,0.3,1.7
	C23.9,18.4,23.8,18.7,23.7,19z"/>
</svg>
