<?xml version="1.0" encoding="utf-8"?>
<!-- Generator: Adobe Illustrator 19.1.0, SVG Export Plug-In . SVG Version: 6.00 Build 0)  -->
<!DOCTYPE svg PUBLIC "-//W3C//DTD SVG 1.1//EN" "http://www.w3.org/Graphics/SVG/1.1/DTD/svg11.dtd">
<svg version="1.1" id="Layer_1" xmlns="http://www.w3.org/2000/svg" xmlns:xlink="http://www.w3.org/1999/xlink" x="0px" y="0px"
	 viewBox="0 0 40 40" enable-background="new 0 0 40 40" xml:space="preserve">
<path id="academic-confidence" fill="#939598" d="M28.9,34.6c0,1-0.7,1.8-1.6,2C23.5,37.4,15,38,12.3,38c-3.8,0-7.2-1.7-7-3.5
	c0.1-0.6,0-1.2-0.1-1.5c-0.1-0.4-0.3-0.7-0.6-1c-0.6-0.6-2-2-1.1-3.3c0,0,0,0,0,0C4.1,27.8,4,26.7,3.3,26c-0.4-0.4-0.9-1-0.9-1.5
	c0-0.6,0.3-1.3,0.6-1.9c0.3-0.6,0.3-1.3,0-1.9c-1.6-3.1,1.8-4.8,2.6-5c0.6-0.2,4.5,0.2,7,0.4c1.5,0.2,2.7-1.3,2.2-2.8
	c-0.2-0.5-0.4-1-0.7-1.6c-2.7-5.4-1.2-8.6-1.1-8.7c5.5-4.8,3.7,2.3,5.9,5.5c1.4,2,2.1,2.4,3.3,5c1.4,2.8,3.5,4.3,4.6,5.1
	c1.2,0.9,2,1.2,2,2.7V34.6z M37.4,18.8v17c0,0.8-0.6,1.4-1.4,1.4h-4.6c-0.8,0-1.4-0.6-1.4-1.4v-17c0-0.8,0.6-1.4,1.4-1.4H36
	C36.8,17.3,37.4,18,37.4,18.8z M34.5,33.7c0-0.8-0.6-1.4-1.4-1.4c-0.8,0-1.4,0.6-1.4,1.4c0,0.8,0.6,1.4,1.4,1.4
	C33.9,35.2,34.5,34.5,34.5,33.7z"/>
</svg>
