<?xml version="1.0" encoding="utf-8"?>
<!-- Generator: Adobe Illustrator 19.1.0, SVG Export Plug-In . SVG Version: 6.00 Build 0)  -->
<!DOCTYPE svg PUBLIC "-//W3C//DTD SVG 1.1//EN" "http://www.w3.org/Graphics/SVG/1.1/DTD/svg11.dtd">
<svg version="1.1" id="Layer_1" xmlns="http://www.w3.org/2000/svg" xmlns:xlink="http://www.w3.org/1999/xlink" x="0px" y="0px"
	 viewBox="0 0 10 10" enable-background="new 0 0 10 10" xml:space="preserve">
<path id="phone" fill="#006BB6" d="M6.9,0.5H3.1C2.5,0.5,2,1,2,1.6v6.8C2,9,2.5,9.5,3.1,9.5h3.8C7.5,9.5,8,9,8,8.3V1.6
	C8,1,7.5,0.5,6.9,0.5z M5,9.2c-0.4,0-0.7-0.3-0.7-0.7S4.6,7.7,5,7.7c0.4,0,0.7,0.3,0.7,0.7S5.4,9.2,5,9.2z M7,7.2
	c0,0.2-0.1,0.3-0.3,0.3H3.3C3.1,7.5,3,7.3,3,7.2V1.7c0-0.2,0.1-0.3,0.3-0.3h3.4C6.9,1.5,7,1.6,7,1.7V7.2z"/>
</svg>
