<?xml version="1.0" encoding="utf-8"?>
<!-- Generator: Adobe Illustrator 19.1.0, SVG Export Plug-In . SVG Version: 6.00 Build 0)  -->
<!DOCTYPE svg PUBLIC "-//W3C//DTD SVG 1.1//EN" "http://www.w3.org/Graphics/SVG/1.1/DTD/svg11.dtd">
<svg version="1.1" id="Layer_1" xmlns="http://www.w3.org/2000/svg" xmlns:xlink="http://www.w3.org/1999/xlink" x="0px" y="0px"
	 viewBox="0 0 10 10" enable-background="new 0 0 10 10" xml:space="preserve">
<path id="location" fill="#006BB6" d="M7.8,4.6L5.7,9.1C5.6,9.4,5.3,9.5,5,9.5S4.5,9.4,4.3,9.1L2.2,4.6C2,4.2,2,3.9,2,3.5
	c0-1.7,1.3-3,3-3s3,1.3,3,3C8,3.9,8,4.2,7.8,4.6z M5,2C4.2,2,3.5,2.7,3.5,3.5S4.2,5,5,5s1.5-0.7,1.5-1.5S5.8,2,5,2z"/>
</svg>
