<?xml version="1.0" encoding="utf-8"?>
<!-- Generator: Adobe Illustrator 19.1.0, SVG Export Plug-In . SVG Version: 6.00 Build 0)  -->
<!DOCTYPE svg PUBLIC "-//W3C//DTD SVG 1.1//EN" "http://www.w3.org/Graphics/SVG/1.1/DTD/svg11.dtd">
<svg version="1.1" id="Layer_1" xmlns="http://www.w3.org/2000/svg" xmlns:xlink="http://www.w3.org/1999/xlink" x="0px" y="0px"
	 viewBox="0 0 10 10" enable-background="new 0 0 10 10" xml:space="preserve">
<path id="url" fill="#006BB6" d="M8.8,5.5c0,0-0.1,0.1-0.1,0.1c0,0,0,0,0,0c0,0-0.1,0-0.1,0L5,2.5l-3.6,3c0,0-0.1,0-0.1,0
	c0,0-0.1,0-0.1-0.1L0.8,5.1c-0.1-0.1,0-0.2,0-0.2l3.7-3.1c0.2-0.2,0.6-0.2,0.8,0l1.3,1.1v-1c0-0.1,0.1-0.2,0.2-0.2h1
	C7.9,1.7,8,1.7,8,1.8V4l1.1,0.9c0.1,0.1,0.1,0.2,0,0.2L8.8,5.5z M8,8c0,0.2-0.2,0.3-0.3,0.3h-2v-2H4.3v2h-2C2.1,8.3,2,8.2,2,8V5.5
	c0,0,0,0,0,0L5,3l3,2.5c0,0,0,0,0,0V8z"/>
</svg>
