<?xml version="1.0" encoding="utf-8"?>
<!-- Generator: Adobe Illustrator 19.1.0, SVG Export Plug-In . SVG Version: 6.00 Build 0)  -->
<!DOCTYPE svg PUBLIC "-//W3C//DTD SVG 1.1//EN" "http://www.w3.org/Graphics/SVG/1.1/DTD/svg11.dtd">
<svg version="1.1" id="TRANSITION_ART" xmlns="http://www.w3.org/2000/svg" xmlns:xlink="http://www.w3.org/1999/xlink" x="0px"
	 y="0px" viewBox="0 0 340 306" enable-background="new 0 0 340 306" xml:space="preserve">
<g id="TOP_1_">
	<path id="SHADOW_1_" opacity="5.000000e-02" d="M334.7,83.4l-56.9-63.5c-3.9-4.3-9.4-6.8-15.3-6.8H71.9c-11.3,0-20.5,9.2-20.5,20.5
		v252c0,11.3,9.2,20.5,20.5,20.5h247.5c11.3,0,20.5-9.2,20.5-20.5V97.1C339.9,92,338,87.1,334.7,83.4z"/>
	<path id="WHITE_1_" fill="#FFFFFF" d="M328,280.9c0,7.7-6.3,14-14,14H66.5c-7.7,0-14-6.3-14-14V20.5c0-7.7,6.3-14,14-14h190.2v65.7
		c0,6.5,5.3,11.9,11.9,11.9H328V280.9z M324.4,74.7c0.8,0.9,1.4,1.8,1.9,2.9h-57.8c-3,0-5.4-2.4-5.4-5.4V7.9
		c1.6,0.8,3.1,1.9,4.4,3.2L324.4,74.7z"/>
	<polygon id="ANGLE_1_" fill="#E6E7E8" points="269.6,84 328,129.4 328,84 	"/>
	<path id="OUTLINE_1_" fill="#A7A9AC" d="M329.2,70.3L272.4,6.8c-3.9-4.3-9.4-6.8-15.3-6.8H66.5C55.2,0,46,9.2,46,20.5v260.4
		c0,11.3,9.2,20.5,20.5,20.5H314c11.3,0,20.5-9.2,20.5-20.5V84C334.5,79,332.6,74.1,329.2,70.3z M324.4,74.7
		c0.8,0.9,1.4,1.8,1.9,2.9h-57.8c-3,0-5.4-2.4-5.4-5.4V7.9c1.6,0.8,3.1,1.9,4.4,3.2L324.4,74.7z M328,280.9c0,7.7-6.3,14-14,14H66.5
		c-7.7,0-14-6.3-14-14V20.5c0-7.7,6.3-14,14-14h190.2v65.7c0,6.5,5.3,11.9,11.9,11.9H328V280.9z"/>
	<path fill="#006BB6" d="M241.6,167.3c1.1,0,2.2-0.4,3-1.2l35.6-35.6c2.7-2.7,0.8-7.2-3-7.2h-50c-2.3,0-4.2-1.9-4.2-4.2v-50
		c0-3.8-4.6-5.7-7.2-3l-35.6,35.6c-0.8,0.8-1.2,1.9-1.2,3v46.2l-45.7,45.7c-4-2.3-8.5-4-13.2-5c-0.7-0.1-1.5-0.3-2.2-0.4
		c-2.2-0.3-4.5-0.5-6.8-0.5h0c-24.6,0-44.5,20-44.5,44.5c0,24.6,20,44.5,44.5,44.5h0c2.3,0,4.6-0.2,6.8-0.5s4.4-0.8,6.5-1.5
		c4.9-1.5,9.4-3.9,13.4-6.9c5.7-4.3,10.4-9.9,13.5-16.4c2.8-5.8,4.4-12.4,4.4-19.3c0-3.7-0.5-7.2-1.3-10.6c-0.1-0.4-0.2-0.7-0.3-1.1
		c-0.7-2.6-1.7-5.2-2.8-7.6c-0.5-1-1-1.9-1.5-2.8l45.7-45.7H241.6z M128.6,242.5c-1,2.3-2.4,4.3-4.1,6.1c-0.9,0.9-1.8,1.6-2.8,2.3
		c-0.5,0.3-1,0.7-1.6,1c-1.1,0.6-2.2,1.1-3.4,1.4c-1.2,0.4-2.4,0.6-3.7,0.8c-0.6,0.1-1.3,0.1-1.9,0.1c-10.5,0-19.1-8.6-19.1-19.1
		c0-10.5,8.6-19.1,19.1-19.1c0.7,0,1.3,0,1.9,0.1c1.3,0.1,2.5,0.4,3.7,0.8c1.2,0.4,2.3,0.9,3.4,1.4c0.5,0.3,1.1,0.6,1.6,1
		c1,0.7,2,1.5,2.8,2.3c1.7,1.7,3.1,3.8,4.1,6.1c1,2.3,1.5,4.8,1.5,7.4C130.1,237.8,129.6,240.3,128.6,242.5z M52.5,180.2v-40.7
		c2.7-1.6,5.4-3.2,8.2-4.6c15.4-7.8,32.6-11.9,50.4-11.9h0c0.5,0,1.1,0,1.6,0c10.9,0.2,21.7,1.9,32,5.1c1.2,0.4,2.4,0.8,3.7,1.2
		c8.3,2.9,12.6,12,9.7,20.3c-0.4,1.2-1,2.4-1.7,3.4c-3.8,5.8-11,8.6-17.9,6.5c-0.2-0.1-0.5-0.1-0.7-0.2c-3.5-1.2-7.2-2.2-10.8-3
		c-1.4-0.3-2.8-0.5-4.2-0.7c-2.7-0.4-5.5-0.7-8.3-0.8c-1.1,0-2.3-0.1-3.4-0.1c-8.8,0-17.2,1.4-25.1,4c-1.6,0.5-3.1,1.1-4.7,1.7
		c-1,0.4-2,0.8-3.1,1.3c-1.2,0.6-2.4,1.1-3.6,1.7c-1.3,0.6-2.5,1.3-3.7,2c-4,2.3-7.8,4.9-11.3,7.9C57.1,175.6,54.7,177.8,52.5,180.2
		z M210.1,287.9c1.7-3.2,3.3-6.5,4.7-9.9c5.6-13.4,8.5-28,8.5-42.9c0-2.7-0.1-5.3-0.3-7.9c-0.1-2.1-0.3-4.3-0.6-6.4
		c0-0.4-0.1-0.7-0.2-1.1c-1-7.5-2.8-14.9-5.3-22c-1.8-5.2-6.1-8.8-11-10.1c0,0-0.1,0-0.1,0c-0.5-0.1-0.9-0.2-1.4-0.3
		c-0.2,0-0.4,0-0.6-0.1c-0.3,0-0.6-0.1-0.9-0.1c-0.2,0-0.4,0-0.6,0c-0.3,0-0.6,0-0.9,0c-0.1,0-0.2,0-0.3,0c-1.5,0.1-3,0.4-4.4,0.9
		c-1,0.4-2,0.8-2.9,1.4c-6.3,3.8-9.3,11.7-6.8,18.9c1,2.8,1.8,5.6,2.5,8.5c1.4,6,2.1,12.1,2.1,18.3c0,23.7-10.3,45.1-26.8,59.8H206
		C207.4,292.7,208.8,290.3,210.1,287.9z"/>
</g>
</svg>
