<?xml version="1.0" encoding="utf-8"?>
<!-- Generator: Adobe Illustrator 19.1.0, SVG Export Plug-In . SVG Version: 6.00 Build 0)  -->
<!DOCTYPE svg PUBLIC "-//W3C//DTD SVG 1.1//EN" "http://www.w3.org/Graphics/SVG/1.1/DTD/svg11.dtd">
<svg version="1.1" id="ARTWORK" xmlns="http://www.w3.org/2000/svg" xmlns:xlink="http://www.w3.org/1999/xlink" x="0px" y="0px"
	 viewBox="0 0 340 306" enable-background="new 0 0 340 306" xml:space="preserve">
<g id="CHECKUP">
	<g id="BOT">
		<path fill="#E6E7E8" d="M291.1,101.3L240.8,45c-3.4-3.8-8.4-6-13.5-6H58.4c-10,0-18.2,8.1-18.2,18.2v230.7
			c0,10,8.1,18.2,18.2,18.2h219.2c10,0,18.2-8.1,18.2-18.2V113.4C295.8,108.9,294.1,104.6,291.1,101.3z M290,287.8
			c0,6.8-5.6,12.4-12.4,12.4H182c1.3-2,2.5-4.1,3.6-6.2c1.5-2.8,2.9-5.8,4.1-8.7c4.9-11.9,7.5-24.8,7.5-38c0-2.4-0.1-4.7-0.3-7
			c-0.1-1.9-0.3-3.8-0.5-5.6c0-0.3-0.1-0.6-0.1-0.9c-0.9-6.6-2.5-13.2-4.7-19.5c-1.6-4.6-5.4-7.8-9.7-8.9c0,0-0.1,0-0.1,0
			c-0.4-0.1-0.8-0.2-1.2-0.3c-0.2,0-0.4,0-0.6-0.1c-0.3,0-0.5-0.1-0.8-0.1c-0.2,0-0.4,0-0.6,0c-0.3,0-0.5,0-0.8,0
			c-0.1,0-0.1,0-0.2,0c-1.3,0.1-2.6,0.3-3.9,0.8c-0.9,0.3-1.8,0.7-2.6,1.2c-5.6,3.4-8.3,10.3-6,16.8c0.9,2.5,1.6,5,2.2,7.5
			c1.2,5.3,1.9,10.7,1.9,16.2c0,21-9.2,39.9-23.7,53H58.4c-6.8,0-12.4-5.6-12.4-12.4v-89.2c2-2.1,4.1-4.1,6.3-5.9
			c3.1-2.6,6.5-4.9,10-7c1.1-0.6,2.2-1.2,3.3-1.8c1.1-0.5,2.1-1.1,3.2-1.5c0.9-0.4,1.8-0.8,2.7-1.2c1.4-0.5,2.7-1.1,4.1-1.5
			c7-2.3,14.5-3.6,22.3-3.6c1,0,2,0,3,0.1c2.5,0.1,4.9,0.3,7.3,0.7c1.2,0.2,2.5,0.4,3.7,0.6c3.3,0.7,6.5,1.5,9.6,2.6
			c0.2,0.1,0.4,0.1,0.6,0.2c6.1,1.8,12.5-0.6,15.8-5.7c0.6-0.9,1.1-1.9,1.5-3c2.6-7.3-1.3-15.4-8.6-18c-1.1-0.4-2.2-0.7-3.2-1.1
			c-9.2-2.9-18.7-4.4-28.4-4.5c-0.5,0-0.9,0-1.4,0c-15.8,0-31,3.7-44.6,10.6c-2.5,1.2-4.9,2.6-7.2,4V57.2c0-6.8,5.6-12.4,12.4-12.4
			h168.5v58.2c0,5.8,4.7,10.5,10.5,10.5H290V287.8z M197,144.3v-44.3c0-3.3-4-5-6.4-2.7L159.1,129c-0.7,0.7-1.1,1.7-1.1,2.7v40.9
			l-40.5,40.5c-3.6-2.1-7.5-3.6-11.7-4.4c-0.6-0.1-1.3-0.2-1.9-0.3c-2-0.3-4-0.5-6-0.5c-21.7,0-39.4,17.7-39.4,39.4
			s17.7,39.4,39.4,39.4c2,0,4-0.2,6-0.5c2-0.3,3.9-0.7,5.7-1.3c4.3-1.3,8.3-3.4,11.9-6.1c5.1-3.8,9.2-8.8,12-14.5
			c2.5-5.2,3.9-11,3.9-17.1c0-3.2-0.4-6.4-1.1-9.4c-0.1-0.3-0.2-0.7-0.3-1c-0.6-2.3-1.5-4.6-2.5-6.7c-0.4-0.9-0.9-1.7-1.3-2.5
			l40.5-40.5h40.9c1,0,2-0.4,2.7-1.1l31.6-31.6c2.4-2.4,0.7-6.4-2.7-6.4h-44.3C198.7,148.1,197,146.4,197,144.3z"/>
	</g>
	<g id="TOP">
		<path id="SHADOW" opacity="5.000000e-02" d="M334.7,74.2L284.3,18c-3.4-3.8-8.4-6-13.5-6H102c-10,0-18.2,8.1-18.2,18.2v223.2
			c0,10,8.1,18.2,18.2,18.2h219.2c10,0,18.2-8.1,18.2-18.2V86.3C339.3,81.9,337.7,77.6,334.7,74.2z"/>
		<path id="WHITE" fill="#FFFFFF" d="M328.8,248.8c0,6.8-5.6,12.4-12.4,12.4H97.2c-6.8,0-12.4-5.6-12.4-12.4V18.2
			c0-6.8,5.6-12.4,12.4-12.4h168.5v58.2c0,5.8,4.7,10.5,10.5,10.5h52.7V248.8z M325.6,66.1c0.7,0.8,1.2,1.6,1.7,2.5h-51.2
			c-2.6,0-4.8-2.1-4.8-4.8V7c1.4,0.7,2.8,1.6,3.9,2.9L325.6,66.1z"/>
		<polygon id="ANGLE" fill="#E6E7E8" points="277.1,74.4 328.8,114.6 328.8,74.4 		"/>
		<path id="OUTLINE" fill="#A7A9AC" d="M329.9,62.3L279.5,6c-3.4-3.8-8.4-6-13.5-6H97.2C87.1,0,79,8.1,79,18.2v230.7
			c0,10,8.1,18.2,18.2,18.2h219.2c10,0,18.2-8.1,18.2-18.2V74.4C334.5,69.9,332.9,65.6,329.9,62.3z M325.6,66.1
			c0.7,0.8,1.2,1.6,1.7,2.5h-51.2c-2.6,0-4.8-2.1-4.8-4.8V7c1.4,0.7,2.8,1.6,3.9,2.9L325.6,66.1z M328.8,248.8
			c0,6.8-5.6,12.4-12.4,12.4H97.2c-6.8,0-12.4-5.6-12.4-12.4V18.2c0-6.8,5.6-12.4,12.4-12.4h168.5v58.2c0,5.8,4.7,10.5,10.5,10.5
			h52.7V248.8z"/>
		<path fill="#006BB6" d="M252.3,148.2c1,0,2-0.4,2.7-1.1l31.6-31.6c2.4-2.4,0.7-6.4-2.7-6.4h-44.3c-2.1,0-3.8-1.7-3.8-3.8V61.1
			c0-3.3-4-5-6.4-2.7L197.8,90c-0.7,0.7-1.1,1.7-1.1,2.7v40.9l-40.5,40.5c-3.6-2.1-7.5-3.6-11.7-4.4c-0.6-0.1-1.3-0.2-1.9-0.3
			c-2-0.3-4-0.5-6-0.5h0c-21.7,0-39.4,17.7-39.4,39.4c0,21.7,17.7,39.4,39.4,39.4h0c2,0,4-0.2,6-0.5c2-0.3,3.9-0.7,5.7-1.3
			c4.3-1.3,8.3-3.4,11.9-6.1c5.1-3.8,9.2-8.8,12-14.5c2.5-5.2,3.9-11,3.9-17.1c0-3.2-0.4-6.4-1.1-9.4c-0.1-0.3-0.2-0.7-0.3-1
			c-0.6-2.3-1.5-4.6-2.5-6.7c-0.4-0.9-0.9-1.7-1.3-2.5l40.5-40.5H252.3z M152.2,214.8c-0.9,2-2.1,3.8-3.6,5.4
			c-0.8,0.8-1.6,1.5-2.5,2.1c-0.4,0.3-0.9,0.6-1.4,0.8c-1,0.5-2,1-3,1.3c-1.1,0.3-2.2,0.6-3.3,0.7c-0.6,0.1-1.1,0.1-1.7,0.1
			c-9.3,0-16.9-7.6-16.9-16.9s7.6-16.9,16.9-16.9c0.6,0,1.2,0,1.7,0.1c1.1,0.1,2.2,0.3,3.3,0.7c1.1,0.3,2.1,0.8,3,1.3
			c0.5,0.3,0.9,0.5,1.4,0.8c0.9,0.6,1.7,1.3,2.5,2.1c1.5,1.5,2.8,3.4,3.6,5.4c0.9,2,1.3,4.2,1.3,6.6
			C153.5,210.6,153.1,212.8,152.2,214.8z M84.7,159.6v-36.1c2.4-1.4,4.8-2.8,7.2-4c13.7-6.9,28.9-10.6,44.6-10.6h0
			c0.5,0,0.9,0,1.4,0c9.7,0.1,19.2,1.7,28.4,4.5c1.1,0.3,2.2,0.7,3.2,1.1c7.3,2.6,11.2,10.6,8.6,18c-0.4,1.1-0.9,2.1-1.5,3
			c-3.4,5.1-9.8,7.6-15.8,5.7c-0.2-0.1-0.4-0.1-0.6-0.2c-3.1-1.1-6.3-2-9.6-2.6c-1.2-0.2-2.4-0.5-3.7-0.6c-2.4-0.4-4.9-0.6-7.3-0.7
			c-1,0-2-0.1-3-0.1c-7.8,0-15.3,1.3-22.3,3.6c-1.4,0.5-2.8,1-4.1,1.5c-0.9,0.4-1.8,0.7-2.7,1.2c-1.1,0.5-2.2,1-3.2,1.5
			c-1.1,0.6-2.2,1.2-3.3,1.8c-3.5,2-6.9,4.4-10,7C88.8,155.5,86.7,157.5,84.7,159.6z M224.3,255c1.5-2.8,2.9-5.8,4.1-8.7
			c4.9-11.9,7.5-24.8,7.5-38c0-2.4-0.1-4.7-0.3-7c-0.1-1.9-0.3-3.8-0.5-5.6c0-0.3-0.1-0.6-0.1-0.9c-0.9-6.6-2.5-13.2-4.7-19.5
			c-1.6-4.6-5.4-7.8-9.7-8.9c0,0-0.1,0-0.1,0c-0.4-0.1-0.8-0.2-1.2-0.3c-0.2,0-0.4,0-0.6-0.1c-0.3,0-0.5-0.1-0.8-0.1
			c-0.2,0-0.4,0-0.6,0c-0.3,0-0.5,0-0.8,0c-0.1,0-0.1,0-0.2,0c-1.3,0.1-2.6,0.3-3.9,0.8c-0.9,0.3-1.8,0.7-2.6,1.2
			c-5.6,3.4-8.3,10.3-6,16.8c0.9,2.5,1.6,5,2.2,7.5c1.2,5.3,1.9,10.7,1.9,16.2c0,21-9.2,39.9-23.7,53h36.6
			C222,259.2,223.2,257.2,224.3,255z"/>
	</g>
</g>
</svg>
