<?xml version="1.0" encoding="utf-8"?>
<!-- Generator: Adobe Illustrator 19.1.0, SVG Export Plug-In . SVG Version: 6.00 Build 0)  -->
<!DOCTYPE svg PUBLIC "-//W3C//DTD SVG 1.1//EN" "http://www.w3.org/Graphics/SVG/1.1/DTD/svg11.dtd">
<svg version="1.1" id="Layer_1" xmlns="http://www.w3.org/2000/svg" xmlns:xlink="http://www.w3.org/1999/xlink" x="0px" y="0px"
	 viewBox="0 0 20 20" enable-background="new 0 0 20 20" xml:space="preserve">
<path id="FALL_ICON_1_" fill-rule="evenodd" clip-rule="evenodd" fill="#58595B" d="M10,0C6.2,0,2.9,2.1,1.2,5.3L6,8l1.2-2.5
	c0.1-0.1,0.1-0.2,0.3-0.3c0.1,0,0.3,0.1,0.4,0.2L8.3,6l3.3-1.2c0.1,0,0.2,0,0.4,0c0.1,0.1,0.2,0.2,0.2,0.3l0,0.5l1.9-0.2
	c0.1,0,0.3,0.2,0.3,0.3c0,0.1,0,0.3-0.1,0.4l-1.2,1.7l0.4,0.5c0.1,0.1,0.1,0.2,0.1,0.4c0,0.1-0.2,0.2-0.3,0.3L12,9.3l2.2,0.9
	c0.1,0.1,0.2,0.2,0.2,0.3c0,0.1,0,0.3-0.2,0.4l-0.7,0.5l1,1.7c0.1,0.1,0.1,0.3,0,0.4c-0.1,0.1-0.2,0.2-0.3,0.2l-2,0l-0.1,0.8
	c0,0.1-0.1,0.3-0.2,0.3c-0.1,0.1-0.3,0-0.4-0.1l-1.9-1.5l0.4,1.3c0,0.1,0,0.3-0.1,0.4C10,15,9.9,15,9.8,15l-0.7-0.1l-0.4,1.4
	c0,0.1-0.1,0.2-0.3,0.3c-0.1,0-0.3,0-0.4-0.1l-1.3-1.2l-0.5,0.2c-0.1,0.1-0.2,0.1-0.4,0c-0.1-0.1-0.2-0.2-0.2-0.3l-0.6-3.5l-0.7-0.2
	c-0.1,0-0.2-0.1-0.3-0.2c0,0,0,0,0,0c0-0.1,0-0.2,0-0.3l1.5-2.3L0.8,6C0.3,7.2,0,8.6,0,10c0,5.5,4.5,10,10,10c5.5,0,10-4.5,10-10
	C20,4.5,15.5,0,10,0z"/>
</svg>
