<?xml version="1.0" encoding="utf-8"?>
<!-- Generator: Adobe Illustrator 19.1.0, SVG Export Plug-In . SVG Version: 6.00 Build 0)  -->
<!DOCTYPE svg PUBLIC "-//W3C//DTD SVG 1.1//EN" "http://www.w3.org/Graphics/SVG/1.1/DTD/svg11.dtd">
<svg version="1.1" id="Layer_1" xmlns="http://www.w3.org/2000/svg" xmlns:xlink="http://www.w3.org/1999/xlink" x="0px" y="0px"
	 viewBox="0 0 10 10" enable-background="new 0 0 10 10" xml:space="preserve">
<g id="fair">
	<circle fill-rule="evenodd" clip-rule="evenodd" fill="#FEBD11" cx="5" cy="5" r="5"/>
	<path fill="#FFFFFF" d="M5,2.6c0.4,0,0.7,0.2,0.7,0.6c0,0,0,0.1,0,0.1L5.5,5.5c0,0.2-0.2,0.4-0.5,0.4c-0.2,0-0.4-0.2-0.4-0.4
		L4.4,3.2C4.4,2.9,4.6,2.6,5,2.6z M5,7.8c-0.4,0-0.7-0.3-0.7-0.7c0-0.4,0.3-0.7,0.7-0.7s0.7,0.3,0.7,0.7C5.8,7.5,5.5,7.8,5,7.8z"/>
</g>
</svg>
