<?xml version="1.0" encoding="utf-8"?>
<!-- Generator: Adobe Illustrator 19.1.0, SVG Export Plug-In . SVG Version: 6.00 Build 0)  -->
<!DOCTYPE svg PUBLIC "-//W3C//DTD SVG 1.1//EN" "http://www.w3.org/Graphics/SVG/1.1/DTD/svg11.dtd">
<svg version="1.1" id="Layer_1" xmlns="http://www.w3.org/2000/svg" xmlns:xlink="http://www.w3.org/1999/xlink" x="0px" y="0px"
	 viewBox="0 0 7 8" enable-background="new 0 0 7 8" xml:space="preserve">
<path fill="#FEBD11" d="M3.1,0C1.4,0,0,1.4,0,3.1c0,1.2,0.7,2.3,1.8,2.8v0.7C1.8,7.4,2.4,8,3.1,8s1.3-0.6,1.3-1.3V5.9
	c1.1-0.5,1.8-1.6,1.8-2.8C6.2,1.4,4.8,0,3.1,0L3.1,0z"/>
<path fill="#FFFFFF" d="M3.1,0.4c-1.5,0-2.7,1.2-2.7,2.7c0,1,0.6,2,1.5,2.4c0.2,0.1,0.3,0.2,0.3,0.4v0.7c0,0.5,0.4,0.9,0.9,0.9
	S4,7.2,4,6.7V5.9c0-0.2,0.1-0.3,0.3-0.4c0.9-0.4,1.5-1.4,1.5-2.4C5.8,1.6,4.6,0.4,3.1,0.4z M1.6,3.1c0,0.1-0.1,0.2-0.2,0.2
	S1.1,3.2,1.1,3.1c0-1.1,0.9-2,2-2c0.1,0,0.2,0.1,0.2,0.2S3.2,1.6,3.1,1.6C2.3,1.6,1.6,2.3,1.6,3.1z M3.3,7.1H2.9
	C2.8,7.1,2.7,7,2.7,6.9c0-0.1,0.1-0.2,0.2-0.2h0.4c0.1,0,0.2,0.1,0.2,0.2C3.6,7,3.5,7.1,3.3,7.1z M3.3,6.2H2.9
	C2.8,6.2,2.7,6.1,2.7,6c0-0.1,0.1-0.2,0.2-0.2h0.4c0.1,0,0.2,0.1,0.2,0.2C3.6,6.1,3.5,6.2,3.3,6.2z"/>
</svg>
