<?xml version="1.0" encoding="utf-8"?>
<!-- Generator: Adobe Illustrator 18.1.1, SVG Export Plug-In . SVG Version: 6.00 Build 0)  -->
<!DOCTYPE svg PUBLIC "-//W3C//DTD SVG 1.1//EN" "http://www.w3.org/Graphics/SVG/1.1/DTD/svg11.dtd">
<svg version="1.1" id="Layer_1" xmlns="http://www.w3.org/2000/svg" xmlns:xlink="http://www.w3.org/1999/xlink" x="0px" y="0px"
	 viewBox="-37 11 24 24" enable-background="new -37 11 24 24" xml:space="preserve">
<path id="path-1" fill="#666666" d="M-25,35c-6.6,0-12-5.4-12-12s5.4-12,12-12s12,5.4,12,12S-18.4,35-25,35z M-25,12.5
	c-5.8,0-10.5,4.7-10.5,10.5s4.7,10.5,10.5,10.5c5.5,0,10.1-4.3,10.5-9.8h-1h-10.6l2.9,2.4c0.3,0.3,0.4,0.7,0.1,1.1
	c-0.1,0.2-0.4,0.3-0.6,0.3c-0.2,0-0.3-0.1-0.5-0.2l-4.5-3.8c-0.2-0.1-0.3-0.4-0.3-0.6s0.1-0.4,0.3-0.6l4.5-3.8
	c0.3-0.3,0.8-0.2,1.1,0.1c0.3,0.3,0.2,0.8-0.1,1.1l-2.9,2.4h10.6h1C-14.9,16.8-19.5,12.5-25,12.5z"/>
</svg>
