<?xml version="1.0" encoding="utf-8"?>
<!-- Generator: Adobe Illustrator 18.1.1, SVG Export Plug-In . SVG Version: 6.00 Build 0)  -->
<!DOCTYPE svg PUBLIC "-//W3C//DTD SVG 1.1//EN" "http://www.w3.org/Graphics/SVG/1.1/DTD/svg11.dtd">
<svg version="1.1" id="Layer_1" xmlns="http://www.w3.org/2000/svg" xmlns:xlink="http://www.w3.org/1999/xlink" x="0px" y="0px"
	 viewBox="-46 17 7 11" enable-background="new -46 17 7 11" xml:space="preserve">
<path id="path-1" fill="#333333" d="M-40.8,20.7c0,1-0.8,1.8-1.7,1.8s-1.7-0.8-1.7-1.8c0-1,0.8-1.8,1.7-1.8S-40.8,19.7-40.8,20.7z
	 M-39,20.7c0-2-1.6-3.7-3.5-3.7c-1.9,0-3.5,1.6-3.5,3.7c0,0.4,0,0.9,0.2,1.3l2.5,5.5c0.1,0.3,0.5,0.5,0.8,0.5c0.3,0,0.6-0.2,0.8-0.5
	l2.5-5.5C-39.1,21.6-39,21.1-39,20.7z"/>
</svg>
