<?xml version="1.0" encoding="utf-8"?>
<!-- Generator: Adobe Illustrator 18.1.1, SVG Export Plug-In . SVG Version: 6.00 Build 0)  -->
<!DOCTYPE svg PUBLIC "-//W3C//DTD SVG 1.1//EN" "http://www.w3.org/Graphics/SVG/1.1/DTD/svg11.dtd">
<svg version="1.1" id="Layer_1" xmlns="http://www.w3.org/2000/svg" xmlns:xlink="http://www.w3.org/1999/xlink" x="0px" y="0px"
	 viewBox="-45 16 8 13" enable-background="new -45 16 8 13" xml:space="preserve">
<path id="path-1" fill="#333333" d="M-39,20c0,1.1-0.9,2-2,2s-2-0.9-2-2c0-1.1,0.9-2,2-2S-39,18.9-39,20z M-37,20c0-2.2-1.8-4-4-4
	s-4,1.8-4,4c0,0.5,0.1,1,0.3,1.4l2.9,6c0.2,0.3,0.5,0.6,0.9,0.6s0.7-0.2,0.9-0.6l2.8-6C-37.1,21-37,20.5-37,20z"/>
</svg>
