<?xml version="1.0" encoding="utf-8"?>
<!-- Generator: Adobe Illustrator 18.1.1, SVG Export Plug-In . SVG Version: 6.00 Build 0)  -->
<!DOCTYPE svg PUBLIC "-//W3C//DTD SVG 1.1//EN" "http://www.w3.org/Graphics/SVG/1.1/DTD/svg11.dtd">
<svg version="1.1" id="Layer_1" xmlns="http://www.w3.org/2000/svg" xmlns:xlink="http://www.w3.org/1999/xlink" x="0px" y="0px"
	 viewBox="-293 385 24 24" enable-background="new -293 385 24 24" xml:space="preserve">
<path id="path-1" fill="#222222" d="M-276.5,409c-2.5,0-4.6-1.2-6-3h-3h-5c-1.4,0-2.5-1.1-2.5-2.5v-9.7v-4.4c0-1.4,1.1-2.5,2.5-2.5
	h1.5v1.5h-1.5c-0.1,0-0.3,0-0.4,0.1c-0.2,0.1-0.4,0.3-0.5,0.5c-0.1,0.1-0.1,0.3-0.1,0.4v3.8v10.3c0,0.6,0.4,1,1,1h5.9h1.2
	c-0.4-0.9-0.6-1.9-0.6-3c0-4.1,3.4-7.5,7.5-7.5c1.1,0,2.1,0.2,3,0.6v-1.4v-3.8c0-0.1,0-0.3-0.1-0.4c-0.1-0.2-0.3-0.4-0.5-0.5
	c-0.1,0-0.3-0.1-0.4-0.1h-1.5v-1.5h1.5c1.4,0,2.5,1.1,2.5,2.5v4.4v1.7c1.8,1.4,3,3.5,3,6C-269,405.6-272.4,409-276.5,409z
	 M-276.5,395.2c-3.5,0-6.2,2.8-6.2,6.2s2.8,6.2,6.2,6.2s6.2-2.8,6.2-6.2S-273,395.2-276.5,395.2z M-277,397h1v5h3v1h-4V397z
	 M-278,390.5c-0.4,0-0.8-0.3-0.9-0.6c-0.1-0.1-0.1-0.3-0.1-0.4V386c0-0.1,0-0.3,0.1-0.4c0.2-0.4,0.5-0.6,0.9-0.6c0.6,0,1,0.4,1,1
	v3.5C-277,390.1-277.4,390.5-278,390.5z M-285,386.9h5v1.5h-5V386.9z M-287,390.5c-0.6,0-1-0.4-1-1V386c0-0.6,0.4-1,1-1
	c0.4,0,0.8,0.3,0.9,0.6c0.1,0.1,0.1,0.3,0.1,0.4v3.5c0,0.1,0,0.3-0.1,0.4C-286.2,390.2-286.6,390.5-287,390.5z"/>
</svg>
