<?xml version="1.0" encoding="utf-8"?>
<!-- Generator: Adobe Illustrator 18.1.1, SVG Export Plug-In . SVG Version: 6.00 Build 0)  -->
<!DOCTYPE svg PUBLIC "-//W3C//DTD SVG 1.1//EN" "http://www.w3.org/Graphics/SVG/1.1/DTD/svg11.dtd">
<svg version="1.1" id="Layer_1" xmlns="http://www.w3.org/2000/svg" xmlns:xlink="http://www.w3.org/1999/xlink" x="0px" y="0px"
	 viewBox="-27 -8 60 60" enable-background="new -27 -8 60 60" xml:space="preserve">
<path id="path-1" fill="#008919" d="M25.5,51.8h-45c-1.9,0-3.5-1.6-3.5-3.5v-45c0-1.9,1.6-3.5,3.5-3.5h6.5h6.8v-0.5
	c0-1.6,1.3-2.9,2.9-2.9h0.4C-2.3-6.2,0-8,3-8c3,0,5.4,1.8,5.9,4.3h0.4c1.6,0,2.9,1.3,2.9,2.9v0.5H19h6.5c1.9,0,3.5,1.6,3.5,3.5v45
	C29,50.2,27.4,51.8,25.5,51.8z M9.8-0.8c0-0.2-0.2-0.4-0.4-0.4H7.8c-0.7,0-1.2-0.6-1.2-1.2c0-2.1-1.8-3.1-3.6-3.1
	c-1.8,0-3.6,0.9-3.6,3.1c0,0.7-0.6,1.2-1.2,1.2h-1.5c-0.2,0-0.4,0.2-0.4,0.4v0.5H9.8V-0.8z M16.5,2.8h-27v3c0,0.8,0.7,1.5,1.5,1.5
	h24c0.8,0,1.5-0.7,1.5-1.5V2.8z M26,3.2c0-0.3-0.2-0.5-0.5-0.5H19v3c0,2.2-1.8,4-4,4H-9c-2.2,0-4-1.8-4-4v-3h-6.5
	C-19.8,2.8-20,3-20,3.2v45c0,0.3,0.2,0.5,0.5,0.5h45c0.3,0,0.5-0.2,0.5-0.5V3.2z M-11.6,30.5l2.6-3.2l8.7,9.4l18-23.5l0.7,3.4
	L0.2,43.2L-11.6,30.5z"/>
</svg>
