<?xml version="1.0" encoding="utf-8"?>
<!-- Generator: Adobe Illustrator 18.1.1, SVG Export Plug-In . SVG Version: 6.00 Build 0)  -->
<!DOCTYPE svg PUBLIC "-//W3C//DTD SVG 1.1//EN" "http://www.w3.org/Graphics/SVG/1.1/DTD/svg11.dtd">
<svg version="1.1" id="Layer_1" xmlns="http://www.w3.org/2000/svg" xmlns:xlink="http://www.w3.org/1999/xlink" x="0px" y="0px"
	 viewBox="-37 11 24 24" enable-background="new -37 11 24 24" xml:space="preserve">
<path id="path-1" fill="#666666" d="M-25,35c-6.6,0-12-5.4-12-12c0-6.6,5.4-12,12-12s12,5.4,12,12C-13,29.6-18.4,35-25,35z
	 M-25,12.5c-5.8,0-10.5,4.7-10.5,10.5s4.7,10.5,10.5,10.5s10.5-4.7,10.5-10.5S-19.2,12.5-25,12.5z M-21,28l-4-3.9l-3.9,3.9l-1-0.8
	l3.9-4l-4.1-4c0,0,0.4-0.4,0.6-0.6c0.2-0.2,0.5-0.5,0.5-0.5l4,4l3.8-3.9l1,1l-3.8,3.9l3.9,3.9L-21,28z"/>
</svg>
