<?xml version="1.0" encoding="utf-8"?>
<!-- Generator: Adobe Illustrator 18.1.1, SVG Export Plug-In . SVG Version: 6.00 Build 0)  -->
<!DOCTYPE svg PUBLIC "-//W3C//DTD SVG 1.1//EN" "http://www.w3.org/Graphics/SVG/1.1/DTD/svg11.dtd">
<svg version="1.1" id="Layer_1" xmlns="http://www.w3.org/2000/svg" xmlns:xlink="http://www.w3.org/1999/xlink" x="0px" y="0px"
	 viewBox="-298.5 385 24 24" enable-background="new -298.5 385 24 24" xml:space="preserve">
<path id="path-1" fill="#1E73D5" d="M-279,409h-15c-1.1,0-2-0.9-2-2v-20c0-1.1,0.9-2,2-2h15c1.1,0,2,0.9,2,2v20
	C-277,408.1-277.9,409-279,409z M-278.5,387c0-0.3-0.2-0.5-0.5-0.5h-15c-0.3,0-0.5,0.2-0.5,0.5v20c0,0.3,0.2,0.5,0.5,0.5h15
	c0.3,0,0.5-0.2,0.5-0.5V387z M-282.5,400c-0.8,0-1.5-0.7-1.5-1.5s0.7-1.5,1.5-1.5s1.5,0.7,1.5,1.5S-281.7,400-282.5,400z
	 M-282.5,396c-0.8,0-1.5-0.7-1.5-1.5s0.7-1.5,1.5-1.5s1.5,0.7,1.5,1.5S-281.7,396-282.5,396z M-282.5,392c-0.8,0-1.5-0.7-1.5-1.5
	s0.7-1.5,1.5-1.5s1.5,0.7,1.5,1.5S-281.7,392-282.5,392z M-286.5,404c-0.8,0-1.5-0.7-1.5-1.5s0.7-1.5,1.5-1.5s1.5,0.7,1.5,1.5
	S-285.7,404-286.5,404z M-286.5,400c-0.8,0-1.5-0.7-1.5-1.5s0.7-1.5,1.5-1.5s1.5,0.7,1.5,1.5S-285.7,400-286.5,400z M-286.5,396
	c-0.8,0-1.5-0.7-1.5-1.5s0.7-1.5,1.5-1.5s1.5,0.7,1.5,1.5S-285.7,396-286.5,396z M-286.5,392c-0.8,0-1.5-0.7-1.5-1.5
	s0.7-1.5,1.5-1.5s1.5,0.7,1.5,1.5S-285.7,392-286.5,392z M-290.5,400c-0.8,0-1.5-0.7-1.5-1.5s0.7-1.5,1.5-1.5s1.5,0.7,1.5,1.5
	S-289.7,400-290.5,400z M-290.5,396c-0.8,0-1.5-0.7-1.5-1.5s0.7-1.5,1.5-1.5s1.5,0.7,1.5,1.5S-289.7,396-290.5,396z M-290.5,392
	c-0.8,0-1.5-0.7-1.5-1.5s0.7-1.5,1.5-1.5s1.5,0.7,1.5,1.5S-289.7,392-290.5,392z"/>
</svg>
