<?xml version="1.0" encoding="utf-8"?>
<!-- Generator: Adobe Illustrator 18.1.1, SVG Export Plug-In . SVG Version: 6.00 Build 0)  -->
<!DOCTYPE svg PUBLIC "-//W3C//DTD SVG 1.1//EN" "http://www.w3.org/Graphics/SVG/1.1/DTD/svg11.dtd">
<svg version="1.1" id="Layer_1" xmlns="http://www.w3.org/2000/svg" xmlns:xlink="http://www.w3.org/1999/xlink" x="0px" y="0px"
	 viewBox="-293 385 24 24" enable-background="new -293 385 24 24" xml:space="preserve">
<path id="path-1" fill="#1E73D5" d="M-271,406h-20c-1.1,0-2-0.9-2-2v-14c0-1.1,0.9-2,2-2h20c1.1,0,2,0.9,2,2v14
	C-269,405.1-269.9,406-271,406z M-270.5,393.3l-5.2,3.7l5.2,3.7V393.3z M-291.5,404c0,0.3,0.2,0.5,0.5,0.5h20c0.3,0,0.5-0.2,0.5-0.5
	v-1.4l-6.4-4.6l-2.4,1.8c-0.5,0.4-1.1,0.5-1.6,0.5s-1.1-0.2-1.6-0.5l-2.4-1.8l-6.4,4.6V404z M-286.3,397l-5.2-3.7v7.4L-286.3,397z
	 M-271,389.5h-20c-0.3,0-0.5,0.2-0.5,0.5v1.4l9.8,7.1c0.4,0.3,1,0.3,1.5,0l9.8-7.1V390C-270.5,389.7-270.7,389.5-271,389.5z"/>
</svg>
