<?xml version="1.0" encoding="utf-8"?>
<!-- Generator: Adobe Illustrator 18.1.1, SVG Export Plug-In . SVG Version: 6.00 Build 0)  -->
<!DOCTYPE svg PUBLIC "-//W3C//DTD SVG 1.1//EN" "http://www.w3.org/Graphics/SVG/1.1/DTD/svg11.dtd">
<svg version="1.1" id="Layer_1" xmlns="http://www.w3.org/2000/svg" xmlns:xlink="http://www.w3.org/1999/xlink" x="0px" y="0px"
	 viewBox="-37 11 24 24" enable-background="new -37 11 24 24" xml:space="preserve">
<path id="path-1" fill="#FFFFFF" d="M-25,35c-6.6,0-12-5.4-12-12s5.4-12,12-12s12,5.4,12,12S-18.4,35-25,35z M-25,33.5
	c3.5,0,6.6-1.7,8.5-4.4c-0.3-0.1-0.7-0.2-1-0.3c-1.2-0.3-2.5-0.7-3.2-1.7c-0.3-0.5,0-1.8,0.1-2.1c0.1-0.2,0.3-0.7,0.3-1.1l0-0.2
	l0.1-0.2c0.1-0.1,0.3-0.4,0.4-1c0.1-0.5,0.1-0.6,0-0.7l0-0.1c-0.1-0.3,0-0.9,0-1.2c0-0.2,0.1-0.7,0.1-0.7c0-1.5-1.2-2.7-2.9-2.7
	c-1.6,0-2.9,1.2-2.9,2.7c0,0.1,0,0.5,0.1,0.6c0,0.4,0.1,1,0,1.3l-0.1,0.2c0,0.1-0.1,0.2,0,0.7c0.1,0.7,0.3,0.9,0.4,1l0.1,0.2l0,0.2
	c0.1,0.4,0.2,0.8,0.3,1.1c0.1,0.3,0.4,1.6,0.2,2.1c-0.7,1.3-2.1,1.8-3.5,2.2c-1.7,0.5-2.8,0.9-2.9,2.1l0,0c0,0.1,0,0.2,0,0.4
	C-29.1,32.9-27.1,33.5-25,33.5z M-25,12.5c-5.3,0-9.6,3.9-10.4,9h5l-1.6-1.4c-0.2-0.1-0.2-0.3-0.2-0.5c0-0.2,0.1-0.4,0.2-0.5
	c0.3-0.3,0.8-0.3,1.1,0l3,2.8c0,0,0,0,0,0c0,0,0,0,0,0c0,0,0,0,0,0c0,0,0.1,0.1,0.1,0.1c0,0,0,0,0,0c0,0,0,0,0,0c0,0,0,0,0,0
	c0,0.1,0.1,0.2,0.1,0.3c0,0,0,0,0,0c0,0,0,0,0,0l0,0l0,0c0,0,0,0,0,0c0,0,0,0,0,0.1c0,0.1,0,0.2,0,0.2c0,0,0,0,0,0
	c0,0,0,0.1-0.1,0.1c0,0,0,0,0,0c0,0,0,0.1-0.1,0.1c0,0,0,0,0,0c0,0,0,0,0,0c0,0,0,0,0,0l-3,2.8c-0.1,0.1-0.3,0.2-0.5,0.2
	c-0.2,0-0.4-0.1-0.6-0.2c-0.1-0.1-0.2-0.3-0.2-0.5c0-0.2,0.1-0.4,0.2-0.5l1.6-1.4h-5.1c0,3.1,1.3,5.8,3.4,7.7
	c0.5-1.8,2.4-2.4,3.9-2.9c1.1-0.3,2.1-0.7,2.6-1.4c0-0.2-0.1-0.7-0.1-0.9c-0.1-0.3-0.3-0.8-0.4-1.3c-0.3-0.4-0.5-0.9-0.6-1.5
	c-0.2-0.8-0.1-1.2,0.1-1.6c0,0,0,0,0,0c0,0,0-0.3-0.1-0.7c0-0.2-0.1-0.8-0.1-0.9c0-2.4,1.9-4.2,4.4-4.2c2.5,0,4.4,1.9,4.4,4.2
	c0,0.1-0.1,0.7-0.1,1c0,0.3,0,0.5,0,0.6c0.1,0.4,0.2,0.8,0,1.5c-0.1,0.6-0.3,1.1-0.6,1.5c-0.1,0.5-0.3,1-0.4,1.3
	c0,0.1-0.1,0.6-0.1,0.8c0.4,0.5,1.3,0.7,2.2,0.9c0.5,0.1,1,0.3,1.5,0.4c0.8-1.4,1.2-3.1,1.2-4.8C-14.5,17.2-19.2,12.5-25,12.5z"/>
</svg>
