<?xml version="1.0" encoding="utf-8"?>
<!-- Generator: Adobe Illustrator 18.1.1, SVG Export Plug-In . SVG Version: 6.00 Build 0)  -->
<!DOCTYPE svg PUBLIC "-//W3C//DTD SVG 1.1//EN" "http://www.w3.org/Graphics/SVG/1.1/DTD/svg11.dtd">
<svg version="1.1" id="Layer_1" xmlns="http://www.w3.org/2000/svg" xmlns:xlink="http://www.w3.org/1999/xlink" x="0px" y="0px"
	 viewBox="-37 11 24 24" enable-background="new -37 11 24 24" xml:space="preserve">
<path id="path-1" fill="#FFFFFF" d="M-20.5,35c-2.5,0-4.6-1.2-6-3h-3h-5c-1.4,0-2.5-1.1-2.5-2.5v-9.7v-4.4c0-1.4,1.1-2.5,2.5-2.5
	h1.5v1.5h-1.5c-0.1,0-0.3,0-0.4,0.1c-0.2,0.1-0.4,0.3-0.5,0.5c-0.1,0.1-0.1,0.3-0.1,0.4v3.8v10.3c0,0.6,0.4,1,1,1h5.9h1.2
	c-0.4-0.9-0.6-1.9-0.6-3c0-4.1,3.4-7.5,7.5-7.5c1.1,0,2.1,0.2,3,0.6v-1.4v-3.8c0-0.1,0-0.3-0.1-0.4c-0.1-0.2-0.3-0.4-0.5-0.5
	c-0.1-0.1-0.3-0.1-0.4-0.1H-20v-1.5h1.5c1.4,0,2.5,1.1,2.5,2.5v4.4v1.7c1.8,1.4,3,3.5,3,6C-13,31.6-16.4,35-20.5,35z M-20.5,21.2
	c-3.5,0-6.2,2.8-6.2,6.2s2.8,6.2,6.2,6.2s6.2-2.8,6.2-6.2S-17,21.2-20.5,21.2z M-21,23h1v5h3v1h-4V23z M-22,16.5
	c-0.4,0-0.8-0.3-0.9-0.6c-0.1-0.1-0.1-0.3-0.1-0.4V12c0-0.1,0-0.3,0.1-0.4c0.2-0.4,0.5-0.6,0.9-0.6c0.6,0,1,0.4,1,1v3.5
	C-21,16.1-21.4,16.5-22,16.5z M-29,12.9h5v1.5h-5V12.9z M-31,16.5c-0.6,0-1-0.4-1-1V12c0-0.6,0.4-1,1-1c0.4,0,0.8,0.3,0.9,0.6
	C-30,11.7-30,11.9-30,12v3.5c0,0.1,0,0.3-0.1,0.4C-30.2,16.2-30.6,16.5-31,16.5z"/>
</svg>
