<?xml version="1.0" encoding="utf-8"?>
<!-- Generator: Adobe Illustrator 18.1.1, SVG Export Plug-In . SVG Version: 6.00 Build 0)  -->
<!DOCTYPE svg PUBLIC "-//W3C//DTD SVG 1.1//EN" "http://www.w3.org/Graphics/SVG/1.1/DTD/svg11.dtd">
<svg version="1.1" id="Layer_1" xmlns="http://www.w3.org/2000/svg" xmlns:xlink="http://www.w3.org/1999/xlink" x="0px" y="0px"
	 viewBox="-37 10.5 24 24" enable-background="new -37 10.5 24 24" xml:space="preserve">
<path id="path-1" fill="#FFFFFF" d="M-15,31h-8v0c-0.6,0.1-1.1,0.6-1.1,1.2h0c-0.1,0.4-0.4,0.7-0.8,0.7s-0.8-0.3-0.8-0.7h0
	c0-0.7-0.5-1.2-1.2-1.2v0c0,0,0,0,0,0h-8c-1.1,0-2-0.9-2-2V14c0-1.1,0.9-2,2-2h8c1.1,0,2,0.9,2,2c0-1.1,0.9-2,2-2h8c1.1,0,2,0.9,2,2
	v15C-13,30.1-13.9,31-15,31z M-26.1,14.5c0-0.6-0.4-1-1-1h-7.4c-0.6,0-1,0.4-1,1v14c0,0.6,0.4,1,1,1h7.4c0.6,0,1-0.4,1-1V14.5z
	 M-14.5,14.5c0-0.6-0.4-1-1-1l-7.4,0c-0.6,0-1.4,0.4-1.4,1v14c0,0.6,0.9,1,1.4,1l7.4,0c0.6,0,1-0.4,1-1L-14.5,14.5z M-22,24h5v1h-5
	V24z M-22,21h5v1h-5V21z M-22,18h5v1h-5V18z M-33,24h5v1h-5V24z M-33,21h5v1h-5V21z M-33,18h5v1h-5V18z"/>
</svg>
