<?xml version="1.0" encoding="utf-8"?>
<!-- Generator: Adobe Illustrator 18.1.1, SVG Export Plug-In . SVG Version: 6.00 Build 0)  -->
<!DOCTYPE svg PUBLIC "-//W3C//DTD SVG 1.1//EN" "http://www.w3.org/Graphics/SVG/1.1/DTD/svg11.dtd">
<svg version="1.1" id="Layer_1" xmlns="http://www.w3.org/2000/svg" xmlns:xlink="http://www.w3.org/1999/xlink" x="0px" y="0px"
	 viewBox="-41 10.5 24 24" enable-background="new -41 10.5 24 24" xml:space="preserve">
<path id="path-1" fill="#FFFFFF" d="M-29,22c-0.6,0-1-0.4-1-1v-9c0-0.6,0.4-1,1-1s1,0.4,1,1v9C-28,21.6-28.4,22-29,22z M-19,24
	c0-3.6-2-7-5.1-8.7c-0.4-0.2-0.8-0.1-1,0.3c-0.2,0.4-0.1,0.8,0.3,1c2.7,1.5,4.4,4.4,4.4,7.4c0,4.7-3.8,8.5-8.5,8.5s-8.5-3.8-8.5-8.5
	c0-3.1,1.7-5.9,4.4-7.4c0.4-0.2,0.5-0.7,0.3-1c-0.2-0.4-0.7-0.5-1-0.3C-37,17-39,20.4-39,24c0,5.5,4.5,10,10,10S-19,29.5-19,24z"/>
</svg>
