<?xml version="1.0" encoding="utf-8"?>
<!-- Generator: Adobe Illustrator 18.1.1, SVG Export Plug-In . SVG Version: 6.00 Build 0)  -->
<!DOCTYPE svg PUBLIC "-//W3C//DTD SVG 1.1//EN" "http://www.w3.org/Graphics/SVG/1.1/DTD/svg11.dtd">
<svg version="1.1" id="Layer_1" xmlns="http://www.w3.org/2000/svg" xmlns:xlink="http://www.w3.org/1999/xlink" x="0px" y="0px"
	 viewBox="-45 11 24 24" enable-background="new -45 11 24 24" xml:space="preserve">
<path id="path-1" fill="#FFFFFF" d="M-31.3,34c-0.4,0.7-1.1,1-1.7,1c-0.7,0-1.4-0.3-1.7-1c-2.4-4.2-6.3-11.8-6.3-14.9
	c0-4.5,3.6-8.1,8-8.1c4.4,0,8,3.6,8,8.1C-25,22.2-28.9,29.7-31.3,34z M-33,12.5c-3.6,0-6.5,2.9-6.5,6.6c0,2,2.3,7.3,6.1,14.2
	c0.1,0.2,0.3,0.3,0.4,0.3c0.1,0,0.3,0,0.4-0.3c3.8-6.9,6.1-12.2,6.1-14.2C-26.5,15.4-29.4,12.5-33,12.5z M-37,19c0-2.2,1.8-4,4-4
	s4,1.8,4,4s-1.8,4-4,4S-37,21.2-37,19z M-30.6,19c0-1.4-1.1-2.5-2.5-2.5c-1.4,0-2.5,1.1-2.5,2.5s1.1,2.5,2.5,2.5
	C-31.7,21.5-30.6,20.4-30.6,19z"/>
</svg>
