<?xml version="1.0" encoding="utf-8"?>
<!-- Generator: Adobe Illustrator 18.1.1, SVG Export Plug-In . SVG Version: 6.00 Build 0)  -->
<!DOCTYPE svg PUBLIC "-//W3C//DTD SVG 1.1//EN" "http://www.w3.org/Graphics/SVG/1.1/DTD/svg11.dtd">
<svg version="1.1" id="Layer_1" xmlns="http://www.w3.org/2000/svg" xmlns:xlink="http://www.w3.org/1999/xlink" x="0px" y="0px"
	 viewBox="-39 11 24 24" enable-background="new -39 11 24 24" xml:space="preserve">
<path id="path-1" fill="#FFFFFF" d="M-21.3,19l0.3,1.4L-28.3,31l-4.7-5.1l1.1-1.3l3.5,3.7L-21.3,19z M-16,16.5v16
	c0,1.4-1.1,2.5-2.5,2.5h-17c-1.4,0-2.5-1.1-2.5-2.5v-16c0-1.4,1.1-2.5,2.5-2.5h4.8c0.4-1.7,1.9-3,3.7-3c1.8,0,3.4,1.3,3.7,3h4.8
	C-17.1,14-16,15.1-16,16.5z M-32.8,16c0,0.4,0.3,0.7,0.8,0.7h10c0.4,0,0.8-0.3,0.8-0.7v-0.5h-11.5V16z M-29.2,14h4.3
	c-0.3-0.9-1.2-1.5-2.2-1.5S-28.8,13.1-29.2,14z M-17.5,16.5c0-0.6-0.4-1-1-1H-20V16c0,1.1-0.9,2-2,2h-10c-1.1,0-2-0.9-2-2v-0.5h-1.5
	c-0.6,0-1,0.4-1,1v16c0,0.6,0.4,1,1,1h17c0.6,0,1-0.4,1-1V16.5z"/>
</svg>
