<?xml version="1.0" encoding="utf-8"?>
<!-- Generator: Adobe Illustrator 18.1.1, SVG Export Plug-In . SVG Version: 6.00 Build 0)  -->
<!DOCTYPE svg PUBLIC "-//W3C//DTD SVG 1.1//EN" "http://www.w3.org/Graphics/SVG/1.1/DTD/svg11.dtd">
<svg version="1.1" id="Layer_1" xmlns="http://www.w3.org/2000/svg" xmlns:xlink="http://www.w3.org/1999/xlink" x="0px" y="0px"
	 viewBox="-36 8 26 30" enable-background="new -36 8 26 30" xml:space="preserve">
<path id="path-1" fill="#DA3B00" d="M-11.8,37.9h-22.5c-1,0-1.8-0.8-1.8-1.8V13.6c0-1,0.8-1.8,1.8-1.8h3.2h3.4v-0.3
	c0-0.8,0.7-1.5,1.5-1.5h0.2c0.3-1.3,1.4-2.2,3-2.2s2.7,0.9,3,2.2h0.2c0.8,0,1.5,0.7,1.5,1.5v0.3h3.4h3.2c1,0,1.8,0.8,1.8,1.8v22.5
	C-10,37.1-10.8,37.9-11.8,37.9z M-19.6,11.6c0-0.1-0.1-0.2-0.2-0.2h-0.8c-0.3,0-0.6-0.3-0.6-0.6c0-1.1-0.9-1.5-1.8-1.5
	s-1.8,0.5-1.8,1.5c0,0.3-0.3,0.6-0.6,0.6h-0.8c-0.1,0-0.2,0.1-0.2,0.2v0.3h6.8V11.6z M-16.2,13.4h-13.5v1.5c0,0.4,0.3,0.8,0.8,0.8
	h12c0.4,0,0.8-0.3,0.8-0.8V13.4z M-11.5,13.6c0-0.1-0.1-0.2-0.2-0.2H-15v1.5c0,1.1-0.9,2-2,2h-12c-1.1,0-2-0.9-2-2v-1.5h-3.2
	c-0.1,0-0.2,0.1-0.2,0.2v22.5c0,0.1,0.1,0.2,0.2,0.2h22.5c0.1,0,0.2-0.1,0.2-0.2V13.6z M-30.3,27.3l1.3-1.6l4.3,4.7l9-11.8l0.3,1.7
	l-9.1,13.3L-30.3,27.3z"/>
</svg>
