<?xml version="1.0" encoding="utf-8"?>
<!-- Generator: Adobe Illustrator 18.1.1, SVG Export Plug-In . SVG Version: 6.00 Build 0)  -->
<!DOCTYPE svg PUBLIC "-//W3C//DTD SVG 1.1//EN" "http://www.w3.org/Graphics/SVG/1.1/DTD/svg11.dtd">
<svg version="1.1" id="Layer_1" xmlns="http://www.w3.org/2000/svg" xmlns:xlink="http://www.w3.org/1999/xlink" x="0px" y="0px"
	 viewBox="-293 384.5 24 24" enable-background="new -293 384.5 24 24" xml:space="preserve">
<path id="path-1" fill="#222222" d="M-269.4,396.5c-0.1,0.2-0.4,0.3-0.6,0.3c-0.2,0-0.3-0.1-0.5-0.2l-10.7-8.6l-10.7,8.6
	c-0.3,0.3-0.8,0.2-1.1-0.1c-0.3-0.3-0.2-0.8,0.1-1.1l11.6-9.4l6.3,5.1V389c0-0.4,0.3-0.8,0.8-0.8c0.4,0,0.8,0.3,0.8,0.8v3.4l3.8,3.1
	C-269.2,395.7-269.1,396.1-269.4,396.5z M-272,397v8c0,1.1-0.9,2-2,2h-5.1c-0.6,0-1-0.4-1-1v-5c0-0.6-0.5-1-1-1c-0.6,0-1,0.4-1,1v5
	c0,0.6-0.5,1-1,1h-5.1c-1.1,0-2-0.9-2-2v-8l9.1-7.3L-272,397z M-288.7,405c0,0.3,0.2,0.5,0.5,0.5h4.6V401c0-1.4,1.1-2.5,2.5-2.5
	c1.4,0,2.5,1.1,2.5,2.5v4.5h4.6c0.3,0,0.5-0.2,0.5-0.5v-7.3l-7.6-6.1l-7.6,6.1V405z"/>
</svg>
