<?xml version="1.0" encoding="utf-8"?>
<!-- Generator: Adobe Illustrator 18.1.1, SVG Export Plug-In . SVG Version: 6.00 Build 0)  -->
<!DOCTYPE svg PUBLIC "-//W3C//DTD SVG 1.1//EN" "http://www.w3.org/Graphics/SVG/1.1/DTD/svg11.dtd">
<svg version="1.1" id="Layer_1" xmlns="http://www.w3.org/2000/svg" xmlns:xlink="http://www.w3.org/1999/xlink" x="0px" y="0px"
	 viewBox="0 0 100 44" enable-background="new 0 0 100 44" xml:space="preserve">
<path fill="#1D1D1B" d="M97.7,33.8v-1.1h-0.4v-0.2h1v0.2h-0.4v1.1H97.7z M98.5,33.8v-1.3h0.3l0.3,0.9c0,0.1,0,0.1,0.1,0.2
	c0,0,0-0.1,0.1-0.2l0.3-0.9h0.2v1.3h-0.2v-1.1l-0.4,1.1H99l-0.4-1.1v1.1H98.5z M21.8,40.9v-12h1.8l4.2,10.5L32,28.9h1.8v12h-1.1
	V30.2l-4.4,10.7h-1l-4.4-10.7v10.7H21.8z M40.1,31.6c0.7,0,1.3,0.2,2,0.5c0.6,0.3,1.2,0.7,1.6,1.2l0-1.4h1.1v9h-1.1l0-1.4
	c-0.4,0.5-0.9,0.9-1.5,1.2c-0.6,0.3-1.3,0.5-2.2,0.5c-1.6-0.1-2.8-0.6-3.5-1.7c-0.8-1-1.1-2-1.1-3c0-1.2,0.4-2.3,1.3-3.3
	C37.4,32.1,38.6,31.6,40.1,31.6z M40.1,32.7c-1.2,0-2.1,0.5-2.7,1.2c-0.6,0.8-0.9,1.6-0.9,2.5c0,0.9,0.3,1.7,0.9,2.5
	c0.6,0.8,1.5,1.2,2.7,1.2c1.1,0,2-0.5,2.6-1.2c0.6-0.8,1-1.6,1-2.5c0-0.9-0.3-1.7-0.9-2.5C42.1,33.1,41.2,32.7,40.1,32.7z
	 M46.7,43.8v-12h1.1v1.5c0.3-0.4,0.7-0.8,1.3-1.2c0.6-0.4,1.4-0.6,2.2-0.6c1.5,0.1,2.7,0.6,3.5,1.5c0.8,1,1.3,2,1.3,3.3
	c0,1.4-0.5,2.5-1.4,3.4c-0.9,0.9-2,1.3-3.3,1.3c-0.9,0-1.6-0.2-2.2-0.5c-0.6-0.3-1.1-0.7-1.4-1.2l0,4.5H46.7z M47.8,36.3
	c0,1,0.4,1.8,1,2.6c0.7,0.7,1.5,1.1,2.6,1.2c1.1,0,1.9-0.4,2.6-1.1c0.6-0.7,1-1.6,1-2.5c0-0.8-0.3-1.7-0.9-2.5
	c-0.6-0.8-1.5-1.2-2.7-1.3c-1.1,0-1.9,0.4-2.6,1.2C48.1,34.6,47.8,35.4,47.8,36.3z M62.2,31.9H63l2.1,6.8l2.2-6.8h1.2l-3.1,9h-0.7
	L62.6,34l-2.1,6.9h-0.8l-3.1-9h1.2l2.3,6.8L62.2,31.9z M73.8,31.6c1.5,0.1,2.6,0.6,3.5,1.6c0.8,1,1.2,2,1.3,3.1
	c0,1.2-0.4,2.3-1.3,3.3c-0.8,1-2,1.5-3.6,1.5c-1.6-0.1-2.8-0.6-3.6-1.7c-0.8-1-1.2-2.1-1.2-3.2c0-1.2,0.4-2.2,1.3-3.2
	C71.2,32.2,72.3,31.7,73.8,31.6z M70.2,36.3c0,1,0.3,1.8,0.9,2.6c0.6,0.7,1.4,1.1,2.6,1.2c1.1,0,2-0.4,2.7-1.1c0.6-0.7,1-1.6,1-2.6
	c0-1-0.3-1.8-0.9-2.6c-0.6-0.7-1.5-1.1-2.6-1.1c-1.1,0-2,0.4-2.6,1.2C70.6,34.6,70.3,35.4,70.2,36.3z M83.2,33
	c-0.7,0-1.2,0.2-1.5,0.6c-0.4,0.4-0.5,0.9-0.5,1.4v5.9H80V32h1.1v0.9c0.3-0.3,0.6-0.6,1-0.8c0.4-0.2,0.8-0.3,1.2-0.4V33z M84.3,28.9
	h1.1v7.2l3.4-4.2h1.3L86.8,36l4.1,4.8h-1.5l-4-4.7v4.7h-1.1V28.9z M90.8,38H92c0,0.5,0.1,1,0.4,1.4c0.3,0.4,0.7,0.6,1.3,0.6
	c0.6,0,1-0.2,1.2-0.5c0.3-0.3,0.4-0.7,0.4-1.1c0-0.6-0.2-1-0.7-1.3c-0.4-0.3-0.9-0.5-1.4-0.6c-0.5-0.2-1-0.4-1.4-0.8
	c-0.4-0.3-0.6-0.9-0.6-1.7c0-0.6,0.2-1.2,0.7-1.7c0.4-0.5,1.1-0.8,2-0.8c0.8,0,1.4,0.2,1.9,0.7c0.5,0.4,0.7,1,0.7,1.8h-1.3
	c0-0.4-0.1-0.7-0.4-1c-0.2-0.3-0.6-0.4-1.1-0.4c-0.4,0-0.8,0.2-1,0.4c-0.2,0.3-0.4,0.6-0.4,0.9c0,0.5,0.2,0.9,0.7,1.1
	c0.4,0.2,0.9,0.4,1.5,0.6c0.6,0.2,1,0.4,1.5,0.8c0.4,0.4,0.6,1,0.7,1.9c0,0.7-0.3,1.3-0.8,1.9c-0.5,0.5-1.2,0.8-2.2,0.8
	c-1,0-1.7-0.4-2.2-1C91,39.5,90.8,38.8,90.8,38z M43.9,20.2l-2.7,0l-1.5,3l-1.5-3h-2.3l2.8,4.6v2.8h2v-2.8l2.3-3.8H44v6.7h0.9V21
	h1.6v-0.8h-1.6v-0.5c0-0.3,0.1-0.6,0.4-0.9c0.3-0.2,0.7-0.3,1.2-0.4v-0.8c-0.9,0-1.6,0.2-2,0.6C44.1,18.6,43.9,19.3,43.9,20.2z
	 M54,21.3c-0.3-0.4-0.8-0.7-1.3-1c-0.5-0.3-1.1-0.4-1.6-0.4c-1.3,0-2.2,0.5-2.9,1.3c-0.7,0.8-1.1,1.7-1.1,2.7c0,0.8,0.3,1.7,0.9,2.5
	c0.6,0.8,1.6,1.3,2.9,1.4c0.7,0,1.3-0.1,1.8-0.4c0.5-0.3,0.9-0.6,1.2-1l0,1.2h0.9v-7.5H54L54,21.3z M53.2,26c-0.5,0.6-1.2,1-2.2,1
	c-1,0-1.7-0.4-2.2-1c-0.5-0.6-0.7-1.3-0.7-2c0-0.7,0.3-1.4,0.8-2.1c0.5-0.6,1.3-1,2.2-1c0.9,0,1.6,0.4,2.1,1
	c0.5,0.6,0.8,1.3,0.8,2.1C54,24.7,53.7,25.3,53.2,26z M60,20.9c0.6,0,1.2,0.2,1.6,0.5c0.4,0.3,0.8,0.7,1,1.1h1.1
	c-0.3-0.7-0.7-1.3-1.4-1.8S61,20,60.1,20c-1.2,0-2.2,0.5-2.9,1.2c-0.7,0.8-1.1,1.7-1.1,2.7c0,1,0.4,1.9,1.1,2.7
	c0.7,0.8,1.7,1.2,2.9,1.3c0.9,0,1.7-0.3,2.3-0.7c0.6-0.5,1.1-1.1,1.3-1.8h-1.1c-0.2,0.4-0.5,0.8-0.9,1.2c-0.4,0.3-1,0.5-1.7,0.5
	c-1,0-1.7-0.4-2.2-1c-0.5-0.6-0.7-1.3-0.7-2.1c0-0.8,0.3-1.4,0.8-2C58.4,21.2,59.1,20.9,60,20.9z M66.8,17.7h-0.9v2.5h-1.5v1h1.5
	v6.5h0.9v-6.5h1.5v-1h-1.5V17.7z M72.7,20c-1.3,0.1-2.2,0.5-2.9,1.3c-0.7,0.8-1.1,1.7-1.1,2.6c0,0.9,0.3,1.8,1,2.6
	c0.6,0.8,1.6,1.3,3,1.4c1.3-0.1,2.3-0.5,3-1.3c0.7-0.8,1-1.7,1.1-2.7c0-0.9-0.4-1.8-1-2.6C74.9,20.5,73.9,20,72.7,20z M74.8,26.1
	c-0.5,0.6-1.3,0.9-2.2,0.9c-0.9,0-1.6-0.4-2.1-1c-0.5-0.6-0.7-1.3-0.7-2.1c0-0.8,0.3-1.5,0.8-2.1c0.5-0.6,1.2-0.9,2.2-1
	c0.9,0,1.7,0.4,2.2,1c0.5,0.6,0.8,1.3,0.8,2.1C75.6,24.8,75.3,25.5,74.8,26.1z M79.5,20.4c-0.3,0.2-0.6,0.4-0.8,0.7v-0.8h-0.9v7.4
	h0.9v-4.9c0-0.4,0.1-0.8,0.4-1.1c0.3-0.3,0.7-0.5,1.3-0.5v-1C80.1,20.1,79.8,20.2,79.5,20.4z M23.9,22.2c0-0.7,0.8-0.7,1.4-0.7
	c0.6,0,1.2,0.1,1.7,0.3l0.1-1.5c-0.5-0.2-1.2-0.3-2-0.3c-1.5,0-3.3,0.5-3.3,2.3c0,2.7,3.6,1.8,3.6,3.2c0,0.6-0.6,0.7-1.2,0.7
	c-0.8,0-1.6-0.2-2.1-0.5l-0.2,1.6c0.7,0.2,1.6,0.3,2.3,0.3c1.7,0,3.3-0.5,3.3-2.5C27.5,22.6,23.9,23.4,23.9,22.2z M35.4,20.2H33
	l-2.3,3h0v-3h-2v7.4h2v-3.4h0l2.4,3.4h2.6l-3-4L35.4,20.2z"/>
<path fill="#F8AC27" d="M9.3,29.7L6,26.5l3.3-3.2l3.3,3.2L9.3,29.7z"/>
<path fill="#5DC5ED" d="M15.3,28.2l-6-5.9l-6,5.9L0,25l9.3-9.1l9.3,9.1L15.3,28.2z"/>
<path fill="#999999" d="M1.2,2.2v0.8h0c0.2-0.3,0.4-0.5,0.7-0.7C2.3,2.1,2.6,2,3,2c0.4,0,0.8,0.1,1.1,0.2C4.5,2.4,4.8,2.7,5,2.9
	c0.2,0.3,0.4,0.6,0.5,1C5.6,4.2,5.6,4.6,5.6,5c0,0.4-0.1,0.8-0.2,1.1C5.4,6.5,5.2,6.8,5,7.1C4.8,7.4,4.5,7.6,4.2,7.7
	C3.9,7.9,3.5,8,3,8c-0.1,0-0.3,0-0.5,0c-0.2,0-0.3-0.1-0.5-0.1C1.9,7.7,1.7,7.6,1.6,7.5C1.4,7.4,1.3,7.3,1.2,7.1h0V10H0.2V2.2H1.2z
	 M4.5,4.2C4.5,3.9,4.4,3.7,4.2,3.5S3.9,3.2,3.7,3C3.5,2.9,3.2,2.9,2.9,2.9C2.6,2.9,2.3,2.9,2.1,3C1.9,3.2,1.7,3.3,1.5,3.5
	C1.4,3.7,1.3,4,1.2,4.2C1.2,4.5,1.2,4.7,1.2,5c0,0.3,0,0.5,0.1,0.8s0.2,0.5,0.3,0.7S1.9,6.9,2.1,7c0.2,0.1,0.5,0.2,0.8,0.2
	c0.3,0,0.6-0.1,0.8-0.2C4,6.8,4.1,6.7,4.3,6.5S4.5,6,4.6,5.8C4.6,5.5,4.6,5.2,4.6,5C4.6,4.7,4.6,4.4,4.5,4.2z M7.4,5.9
	c0.1,0.3,0.2,0.5,0.4,0.7C7.9,6.8,8.1,6.9,8.4,7C8.6,7.1,8.8,7.2,9,7.2c0.2,0,0.5,0,0.7-0.1c0.2-0.1,0.4-0.2,0.6-0.4
	c0.2-0.2,0.3-0.4,0.4-0.7c0.1-0.3,0.1-0.6,0.1-0.9c0-0.3,0-0.7-0.1-0.9c-0.1-0.3-0.2-0.5-0.4-0.7C10.1,3.2,9.9,3.1,9.7,3
	C9.5,2.9,9.3,2.9,9,2.9c-0.2,0-0.5,0-0.7,0.1C8.1,3.1,7.9,3.2,7.8,3.4C7.6,3.6,7.5,3.8,7.4,4.1C7.3,4.4,7.3,4.7,7.3,5
	C7.3,5.4,7.3,5.7,7.4,5.9z M6.5,3.8C6.6,3.5,6.7,3.2,7,2.9c0.2-0.3,0.5-0.5,0.9-0.6C8.2,2.1,8.6,2,9,2c0.5,0,0.9,0.1,1.2,0.2
	s0.6,0.4,0.9,0.6c0.2,0.3,0.4,0.6,0.5,0.9c0.1,0.4,0.2,0.8,0.2,1.2c0,0.4-0.1,0.8-0.2,1.2c-0.1,0.4-0.3,0.7-0.5,0.9
	c-0.2,0.3-0.5,0.5-0.9,0.6C9.9,7.9,9.5,8,9,8C8.6,8,8.2,7.9,7.9,7.7C7.5,7.6,7.2,7.4,7,7.1C6.7,6.9,6.6,6.5,6.5,6.2
	C6.3,5.8,6.3,5.4,6.3,5C6.3,4.6,6.3,4.2,6.5,3.8z M17.2,7.9L16,3.3h0l-1.1,4.5h-1L12,2.2h1l1.3,4.7h0l1.1-4.7h1l1.2,4.7h0L19,2.2h1
	l-1.8,5.7H17.2z M24.3,3.8c-0.1-0.2-0.2-0.4-0.3-0.5c-0.1-0.1-0.3-0.3-0.5-0.3c-0.2-0.1-0.4-0.1-0.6-0.1c-0.2,0-0.5,0-0.7,0.1
	c-0.2,0.1-0.4,0.2-0.5,0.3c-0.1,0.1-0.2,0.3-0.3,0.5c-0.1,0.2-0.1,0.4-0.1,0.6h3.3C24.4,4.2,24.4,4,24.3,3.8z M24.5,7.5
	c-0.4,0.3-1,0.5-1.6,0.5c-0.5,0-0.8-0.1-1.2-0.2c-0.3-0.1-0.6-0.4-0.8-0.6c-0.2-0.3-0.4-0.6-0.5-0.9c-0.1-0.4-0.2-0.8-0.2-1.2
	c0-0.4,0.1-0.8,0.2-1.2s0.3-0.7,0.6-0.9c0.2-0.3,0.5-0.5,0.8-0.6C22.1,2.1,22.5,2,22.9,2c0.5,0,0.9,0.1,1.3,0.3
	c0.3,0.2,0.6,0.5,0.8,0.8c0.2,0.3,0.3,0.7,0.4,1.1c0.1,0.4,0.1,0.7,0.1,1.1h-4.3c0,0.2,0,0.5,0.1,0.7c0.1,0.2,0.2,0.4,0.3,0.6
	c0.1,0.2,0.3,0.3,0.6,0.4c0.2,0.1,0.5,0.2,0.8,0.2c0.4,0,0.7-0.1,1-0.3s0.4-0.5,0.5-0.8h0.9C25.2,6.7,24.9,7.2,24.5,7.5z M27.1,2.2
	v1.2h0c0.2-0.5,0.5-0.8,0.8-1S28.7,2,29.2,2v1c-0.4,0-0.7,0.1-1,0.2s-0.5,0.3-0.6,0.5c-0.2,0.2-0.3,0.4-0.4,0.7
	c-0.1,0.3-0.1,0.6-0.1,1v2.5h-0.9V2.2H27.1z M33.5,3.8c-0.1-0.2-0.2-0.4-0.3-0.5C33,3.2,32.9,3.1,32.7,3c-0.2-0.1-0.4-0.1-0.6-0.1
	c-0.2,0-0.5,0-0.7,0.1c-0.2,0.1-0.4,0.2-0.5,0.3c-0.1,0.1-0.2,0.3-0.3,0.5c-0.1,0.2-0.1,0.4-0.1,0.6h3.3C33.7,4.2,33.6,4,33.5,3.8z
	 M33.8,7.5c-0.4,0.3-1,0.5-1.6,0.5c-0.5,0-0.8-0.1-1.2-0.2c-0.3-0.1-0.6-0.4-0.8-0.6c-0.2-0.3-0.4-0.6-0.5-0.9
	c-0.1-0.4-0.2-0.8-0.2-1.2c0-0.4,0.1-0.8,0.2-1.2s0.3-0.7,0.6-0.9c0.2-0.3,0.5-0.5,0.8-0.6C31.3,2.1,31.7,2,32.1,2
	c0.5,0,0.9,0.1,1.3,0.3c0.3,0.2,0.6,0.5,0.8,0.8c0.2,0.3,0.3,0.7,0.4,1.1s0.1,0.7,0.1,1.1h-4.3c0,0.2,0,0.5,0.1,0.7
	c0.1,0.2,0.2,0.4,0.3,0.6C31,6.8,31.1,6.9,31.4,7c0.2,0.1,0.5,0.2,0.8,0.2c0.4,0,0.7-0.1,1-0.3c0.3-0.2,0.4-0.5,0.5-0.8h0.9
	C34.5,6.7,34.2,7.2,33.8,7.5z M36.3,5.8c0.1,0.3,0.2,0.5,0.3,0.7C36.8,6.7,37,6.9,37.2,7c0.2,0.1,0.5,0.2,0.8,0.2
	c0.3,0,0.6-0.1,0.8-0.2c0.2-0.1,0.4-0.3,0.5-0.5c0.1-0.2,0.2-0.4,0.3-0.7c0.1-0.3,0.1-0.5,0.1-0.8c0-0.3,0-0.5-0.1-0.8
	c-0.1-0.3-0.2-0.5-0.3-0.7C39.2,3.3,39,3.2,38.7,3c-0.2-0.1-0.5-0.2-0.8-0.2c-0.3,0-0.6,0.1-0.8,0.2c-0.2,0.1-0.4,0.3-0.5,0.5
	c-0.1,0.2-0.2,0.4-0.3,0.7c-0.1,0.3-0.1,0.5-0.1,0.8C36.2,5.3,36.2,5.6,36.3,5.8z M39.7,7.9V7.1h0c-0.2,0.3-0.4,0.5-0.7,0.7
	C38.6,7.9,38.2,8,37.8,8c-0.4,0-0.8-0.1-1.1-0.2c-0.3-0.2-0.6-0.4-0.8-0.6c-0.2-0.3-0.4-0.6-0.5-0.9c-0.1-0.4-0.2-0.7-0.2-1.1
	s0.1-0.8,0.2-1.1c0.1-0.4,0.3-0.7,0.5-0.9c0.2-0.3,0.5-0.5,0.8-0.6C37,2.1,37.4,2,37.8,2c0.1,0,0.3,0,0.5,0c0.2,0,0.3,0.1,0.5,0.1
	c0.2,0.1,0.3,0.2,0.5,0.3c0.2,0.1,0.3,0.3,0.4,0.4h0V0h0.9v7.9H39.7z M45.6,0v2.9h0c0.2-0.3,0.4-0.5,0.7-0.7C46.7,2.1,47.1,2,47.5,2
	c0.4,0,0.8,0.1,1.1,0.2c0.3,0.2,0.6,0.4,0.8,0.7c0.2,0.3,0.4,0.6,0.5,1s0.2,0.7,0.2,1.1c0,0.4-0.1,0.8-0.2,1.1
	c-0.1,0.4-0.3,0.7-0.5,0.9c-0.2,0.3-0.5,0.5-0.8,0.6C48.3,7.9,47.9,8,47.5,8c-0.1,0-0.3,0-0.5,0c-0.2,0-0.3-0.1-0.5-0.1
	c-0.2-0.1-0.3-0.2-0.5-0.3c-0.2-0.1-0.3-0.3-0.4-0.4h0v0.8h-0.9V0H45.6z M49,4.2c-0.1-0.3-0.2-0.5-0.3-0.7c-0.1-0.2-0.3-0.4-0.5-0.5
	c-0.2-0.1-0.5-0.2-0.8-0.2c-0.3,0-0.6,0.1-0.8,0.2c-0.2,0.1-0.4,0.3-0.5,0.5c-0.1,0.2-0.2,0.4-0.3,0.7c-0.1,0.3-0.1,0.5-0.1,0.8
	c0,0.3,0,0.5,0.1,0.8c0.1,0.3,0.2,0.5,0.3,0.7c0.1,0.2,0.3,0.4,0.6,0.5c0.2,0.1,0.5,0.2,0.8,0.2c0.3,0,0.6-0.1,0.8-0.2
	c0.2-0.1,0.4-0.3,0.5-0.5S49,6,49,5.8c0.1-0.3,0.1-0.5,0.1-0.8C49.1,4.7,49.1,4.4,49,4.2z M55.5,2.2h-1l-1.6,4.7h0l-1.7-4.7h-1.1
	l2.3,5.7l-0.4,1c-0.1,0.2-0.2,0.3-0.3,0.4c-0.1,0.1-0.3,0.1-0.5,0.1c-0.1,0-0.2,0-0.3,0c-0.1,0-0.2-0.1-0.3-0.1V10
	c0.1,0,0.2,0.1,0.3,0.1c0.1,0,0.2,0,0.3,0c0.2,0,0.4,0,0.5-0.1c0.2-0.1,0.3-0.1,0.4-0.3c0.1-0.1,0.2-0.3,0.4-0.5
	c0.1-0.2,0.2-0.4,0.3-0.7L55.5,2.2z"/>
</svg>
