<?xml version="1.0" encoding="utf-8"?>
<!-- Generator: Adobe Illustrator 18.1.1, SVG Export Plug-In . SVG Version: 6.00 Build 0)  -->
<!DOCTYPE svg PUBLIC "-//W3C//DTD SVG 1.1//EN" "http://www.w3.org/Graphics/SVG/1.1/DTD/svg11.dtd">
<svg version="1.1" id="Layer_1" xmlns="http://www.w3.org/2000/svg" xmlns:xlink="http://www.w3.org/1999/xlink" x="0px" y="0px"
	 viewBox="217.5 307.5 177 177" enable-background="new 217.5 307.5 177 177" xml:space="preserve">
<path id="path-1" fill="#F2F2F2" d="M393.7,348.6l-22.3,22.3c-0.5,0.5-1.2,0.8-1.9,0.8h-29l-28.6,28.6c2.3,4.1,3.7,8.8,3.7,13.9
	c0,15.4-12.5,27.8-27.8,27.8c-15.3,0-27.8-12.5-27.8-27.8c0-15.4,12.5-27.8,27.8-27.8c5,0,9.7,1.4,13.9,3.7l28.6-28.6v-29
	c0-0.7,0.3-1.4,0.8-1.9l22.3-22.3c1.7-1.7,4.5-0.5,4.5,1.9v31.2c0,1.5,1.2,2.6,2.6,2.6h31.3C394.2,344.1,395.4,346.9,393.7,348.6z
	 M288,402.2c-6.6,0-12,5.3-12,12s5.3,12,12,12s12-5.3,12-12C299.8,407.6,294.5,402.2,288,402.2z M304.6,366.7
	c-5.3-1.9-11-2.8-16.7-2.8c-27.7,0-50.3,22.6-50.3,50.4c0,27.8,22.6,50.4,50.3,50.4c27.7,0,50.3-22.6,50.3-50.4
	c0-5.7-1-11.4-2.8-16.8c-1.8-5.2,0.9-10.9,6-12.7c5.2-1.8,10.9,0.9,12.7,6c2.6,7.5,4,15.4,4,23.4c0,18.8-7.3,36.4-20.6,49.7
	s-30.9,20.6-49.7,20.6c-18.8,0-36.4-7.3-49.7-20.6c-13.3-13.3-20.6-30.9-20.6-49.7c0-18.8,7.3-36.4,20.6-49.7
	c13.3-13.3,30.9-20.6,49.7-20.6c8,0,15.9,1.3,23.3,4c5.2,1.8,7.9,7.5,6,12.7C315.4,365.8,309.8,368.5,304.6,366.7z"/>
</svg>
